<svg width="243" height="35" viewBox="0 0 243 35" fill="none" xmlns="http://www.w3.org/2000/svg">
<path d="M16.3675 1.10316C16.5631 0.767502 16.8433 0.488998 17.1801 0.295431C17.517 0.101864 17.8987 0 18.2872 0C18.6757 0 19.0574 0.101864 19.3942 0.295431C19.731 0.488998 20.0112 0.767502 20.2068 1.10316L25.1749 9.63146L34.823 11.7218C35.2025 11.8042 35.5537 11.9847 35.8417 12.2453C36.1297 12.5058 36.3444 12.8373 36.4644 13.2067C36.5843 13.5761 36.6053 13.9705 36.5254 14.3505C36.4454 14.7305 36.2672 15.083 36.0085 15.3727L29.4319 22.7332L30.4273 32.5537C30.4665 32.9404 30.4037 33.3306 30.245 33.6854C30.0862 34.0402 29.8372 34.3472 29.5228 34.5757C29.2083 34.8041 28.8394 34.9461 28.4529 34.9874C28.0665 35.0287 27.6759 34.9679 27.3203 34.8111L18.2872 30.8296L9.25406 34.8111C8.89843 34.9679 8.50786 35.0287 8.12138 34.9874C7.73489 34.9461 7.36601 34.8041 7.05155 34.5757C6.7371 34.3472 6.48808 34.0402 6.32936 33.6854C6.17064 33.3306 6.10778 32.9404 6.14705 32.5537L7.14243 22.7332L0.565795 15.3745C0.30669 15.0848 0.128103 14.7322 0.0478654 14.3519C-0.0323725 13.9716 -0.0114548 13.577 0.10853 13.2073C0.228515 12.8376 0.44337 12.5059 0.731644 12.2452C1.01992 11.9846 1.37153 11.8041 1.75137 11.7218L11.3995 9.63146L16.3675 1.10316Z" fill="#FFA800"/>
<path d="M67.9398 1.10316C68.1354 0.767502 68.4156 0.488998 68.7524 0.295431C69.0892 0.101864 69.4709 0 69.8594 0C70.2479 0 70.6296 0.101864 70.9665 0.295431C71.3033 0.488998 71.5835 0.767502 71.7791 1.10316L76.7471 9.63146L86.3952 11.7218C86.7747 11.8042 87.126 11.9847 87.414 12.2453C87.702 12.5058 87.9167 12.8373 88.0366 13.2067C88.1566 13.5761 88.1776 13.9705 88.0976 14.3505C88.0177 14.7305 87.8394 15.083 87.5808 15.3727L81.0042 22.7332L81.9995 32.5537C82.0388 32.9404 81.9759 33.3306 81.8172 33.6854C81.6585 34.0402 81.4095 34.3472 81.095 34.5757C80.7806 34.8041 80.4117 34.9461 80.0252 34.9874C79.6387 35.0287 79.2482 34.9679 78.8925 34.8111L69.8594 30.8296L60.8263 34.8111C60.4707 34.9679 60.0801 35.0287 59.6936 34.9874C59.3072 34.9461 58.9383 34.8041 58.6238 34.5757C58.3094 34.3472 58.0603 34.0402 57.9016 33.6854C57.7429 33.3306 57.68 32.9404 57.7193 32.5537L58.7147 22.7332L52.1381 15.3745C51.879 15.0848 51.7004 14.7322 51.6201 14.3519C51.5399 13.9716 51.5608 13.577 51.6808 13.2073C51.8008 12.8376 52.0156 12.5059 52.3039 12.2452C52.5922 11.9846 52.9438 11.8041 53.3236 11.7218L62.9717 9.63146L67.9398 1.10316Z" fill="#FFA800"/>
<path d="M119.512 1.10316C119.708 0.767502 119.988 0.488998 120.325 0.295431C120.661 0.101864 121.043 0 121.432 0C121.82 0 122.202 0.101864 122.539 0.295431C122.876 0.488998 123.156 0.767502 123.351 1.10316L128.319 9.63146L137.967 11.7218C138.347 11.8042 138.698 11.9847 138.986 12.2453C139.274 12.5058 139.489 12.8373 139.609 13.2067C139.729 13.5761 139.75 13.9705 139.67 14.3505C139.59 14.7305 139.412 15.083 139.153 15.3727L132.576 22.7332L133.572 32.5537C133.611 32.9404 133.548 33.3306 133.389 33.6854C133.231 34.0402 132.982 34.3472 132.667 34.5757C132.353 34.8041 131.984 34.9461 131.597 34.9874C131.211 35.0287 130.82 34.9679 130.465 34.8111L121.432 30.8296L112.399 34.8111C112.043 34.9679 111.652 35.0287 111.266 34.9874C110.879 34.9461 110.511 34.8041 110.196 34.5757C109.882 34.3472 109.633 34.0402 109.474 33.6854C109.315 33.3306 109.252 32.9404 109.292 32.5537L110.287 22.7332L103.71 15.3745C103.451 15.0848 103.273 14.7322 103.192 14.3519C103.112 13.9716 103.133 13.577 103.253 13.2073C103.373 12.8376 103.588 12.5059 103.876 12.2452C104.164 11.9846 104.516 11.8041 104.896 11.7218L114.544 9.63146L119.512 1.10316Z" fill="#FFA800"/>
<path d="M171.084 1.10316C171.28 0.767502 171.56 0.488998 171.897 0.295431C172.234 0.101864 172.615 0 173.004 0C173.392 0 173.774 0.101864 174.111 0.295431C174.448 0.488998 174.728 0.767502 174.924 1.10316L179.892 9.63146L189.54 11.7218C189.919 11.8042 190.271 11.9847 190.559 12.2453C190.847 12.5058 191.061 12.8373 191.181 13.2067C191.301 13.5761 191.322 13.9705 191.242 14.3505C191.162 14.7305 190.984 15.083 190.725 15.3727L184.149 22.7332L185.144 32.5537C185.183 32.9404 185.12 33.3306 184.962 33.6854C184.803 34.0402 184.554 34.3472 184.24 34.5757C183.925 34.8041 183.556 34.9461 183.17 34.9874C182.783 35.0287 182.393 34.9679 182.037 34.8111L173.004 30.8296L163.971 34.8111C163.615 34.9679 163.225 35.0287 162.838 34.9874C162.452 34.9461 162.083 34.8041 161.768 34.5757C161.454 34.3472 161.205 34.0402 161.046 33.6854C160.887 33.3306 160.825 32.9404 160.864 32.5537L161.859 22.7332L155.283 15.3745C155.023 15.0848 154.845 14.7322 154.765 14.3519C154.684 13.9716 154.705 13.577 154.825 13.2073C154.945 12.8376 155.16 12.5059 155.448 12.2452C155.737 11.9846 156.088 11.8041 156.468 11.7218L166.116 9.63146L171.084 1.10316Z" fill="#FFA800"/>
<path d="M222.657 1.10316C222.852 0.767502 223.132 0.488998 223.469 0.295431C223.806 0.101864 224.188 0 224.576 0C224.965 0 225.346 0.101864 225.683 0.295431C226.02 0.488998 226.3 0.767502 226.496 1.10316L231.464 9.63146L241.112 11.7218C241.492 11.8042 241.843 11.9847 242.131 12.2453C242.419 12.5058 242.633 12.8373 242.753 13.2067C242.873 13.5761 242.894 13.9705 242.814 14.3505C242.734 14.7305 242.556 15.083 242.298 15.3727L235.721 22.7332L236.716 32.5537C236.756 32.9404 236.693 33.3306 236.534 33.6854C236.375 34.0402 236.126 34.3472 235.812 34.5757C235.497 34.8041 235.128 34.9461 234.742 34.9874C234.356 35.0287 233.965 34.9679 233.609 34.8111L224.576 30.8296L215.543 34.8111C215.187 34.9679 214.797 35.0287 214.41 34.9874C214.024 34.9461 213.655 34.8041 213.341 34.5757C213.026 34.3472 212.777 34.0402 212.618 33.6854C212.46 33.3306 212.397 32.9404 212.436 32.5537L213.431 22.7332L206.855 15.3745C206.596 15.0848 206.417 14.7322 206.337 14.3519C206.257 13.9716 206.278 13.577 206.398 13.2073C206.518 12.8376 206.732 12.5059 207.021 12.2452C207.309 11.9846 207.661 11.8041 208.04 11.7218L217.689 9.63146L222.657 1.10316Z" fill="#FFA800" fill-opacity="0.4"/>
</svg>
