<svg width="30" height="31" viewBox="0 0 30 31" fill="none" xmlns="http://www.w3.org/2000/svg">
<path d="M14.9985 0C23.2837 0 30 6.73177 30 15.036C30 23.3387 23.2837 30.069 14.9985 30.069C6.71333 30.0705 2.5121e-07 23.3387 2.5121e-07 15.036C-0.0014996 6.73177 6.71333 0 14.9985 0ZM14.9925 12.4022C14.6249 12.4027 14.2704 12.5385 13.9961 12.7837C13.7218 13.029 13.5469 13.3667 13.5046 13.7326L13.4941 13.907L13.5001 22.1782L13.5091 22.3525C13.5511 22.7192 13.7261 23.0576 14.0009 23.3033C14.2757 23.5489 14.631 23.6847 14.9992 23.6847C15.3675 23.6847 15.7228 23.5489 15.9976 23.3033C16.2724 23.0576 16.4474 22.7192 16.4894 22.3525L16.4983 22.1767L16.4923 13.9055L16.4819 13.7296C16.4385 13.364 16.2627 13.027 15.9879 12.7826C15.7131 12.5382 15.3584 12.4033 14.991 12.4037L14.9925 12.4022ZM15 6.76634C14.5022 6.76634 14.0247 6.96456 13.6727 7.31739C13.3207 7.67021 13.1229 8.14875 13.1229 8.64772C13.1229 9.14669 13.3207 9.62523 13.6727 9.97806C14.0247 10.3309 14.5022 10.5291 15 10.5291C15.2464 10.529 15.4904 10.4803 15.718 10.3857C15.9456 10.2911 16.1524 10.1524 16.3265 9.97774C16.5007 9.80304 16.6388 9.59567 16.733 9.36746C16.8272 9.13926 16.8757 8.89469 16.8756 8.64772C16.8755 8.40075 16.8268 8.15622 16.7324 7.92809C16.6381 7.69996 16.4998 7.4927 16.3255 7.31814C16.1512 7.14358 15.9443 7.00513 15.7166 6.91071C15.4889 6.81629 15.2449 6.76775 14.9985 6.76785L15 6.76634Z" fill="white"/>
</svg>
