<svg width="31" height="34" viewBox="0 0 31 34" fill="none" xmlns="http://www.w3.org/2000/svg">
<path d="M21.9557 24.75C22.6502 24.75 23.2405 24.5069 23.7266 24.0208C24.2127 23.5347 24.4557 22.9444 24.4557 22.25C24.4557 21.5556 24.2127 20.9653 23.7266 20.4792C23.2405 19.9931 22.6502 19.75 21.9557 19.75C21.2613 19.75 20.671 19.9931 20.1849 20.4792C19.6988 20.9653 19.4557 21.5556 19.4557 22.25C19.4557 22.9444 19.6988 23.5347 20.1849 24.0208C20.671 24.5069 21.2613 24.75 21.9557 24.75ZM21.9557 29.75C22.8168 29.75 23.6085 29.5486 24.3307 29.1458C25.053 28.7431 25.6363 28.2083 26.0807 27.5417C25.4696 27.1806 24.8168 26.9028 24.1224 26.7083C23.428 26.5139 22.7057 26.4167 21.9557 26.4167C21.2057 26.4167 20.4835 26.5139 19.7891 26.7083C19.0946 26.9028 18.4418 27.1806 17.8307 27.5417C18.2752 28.2083 18.8585 28.7431 19.5807 29.1458C20.303 29.5486 21.0946 29.75 21.9557 29.75ZM13.6224 33.0833C9.76128 32.1111 6.57378 29.8958 4.0599 26.4375C1.54601 22.9792 0.289062 19.1389 0.289062 14.9167V7.04167C0.289062 6.34722 0.490451 5.72222 0.893229 5.16667C1.29601 4.61111 1.81684 4.20833 2.45573 3.95833L12.4557 0.208333C12.8446 0.0694445 13.2335 0 13.6224 0C14.0113 0 14.4002 0.0694445 14.7891 0.208333L24.7891 3.95833C25.428 4.20833 25.9488 4.61111 26.3516 5.16667C26.7543 5.72222 26.9557 6.34722 26.9557 7.04167V14.2083C26.428 13.9861 25.8863 13.7847 25.3307 13.6042C24.7752 13.4236 24.2057 13.2917 23.6224 13.2083V7.08333L13.6224 3.33333L3.6224 7.08333V14.9167C3.6224 16.2222 3.79601 17.5278 4.14323 18.8333C4.49045 20.1389 4.97656 21.3819 5.60156 22.5625C6.22656 23.7431 6.98351 24.8333 7.8724 25.8333C8.76128 26.8333 9.7474 27.6667 10.8307 28.3333C11.1363 29.2222 11.5391 30.0694 12.0391 30.875C12.5391 31.6806 13.1085 32.4028 13.7474 33.0417C13.7196 33.0417 13.6988 33.0486 13.6849 33.0625C13.671 33.0764 13.6502 33.0833 13.6224 33.0833ZM21.9557 33.0833C19.6502 33.0833 17.6849 32.2708 16.0599 30.6458C14.4349 29.0208 13.6224 27.0556 13.6224 24.75C13.6224 22.4444 14.4349 20.4792 16.0599 18.8542C17.6849 17.2292 19.6502 16.4167 21.9557 16.4167C24.2613 16.4167 26.2266 17.2292 27.8516 18.8542C29.4766 20.4792 30.2891 22.4444 30.2891 24.75C30.2891 27.0556 29.4766 29.0208 27.8516 30.6458C26.2266 32.2708 24.2613 33.0833 21.9557 33.0833Z" fill="#D75F04"/>
</svg>
