<svg width="38" height="39" viewBox="0 0 38 39" fill="none" xmlns="http://www.w3.org/2000/svg">
<path d="M32.3832 31.275L35.8788 25.225C36.1035 24.85 36.0036 24.375 35.6791 24.1L31.9837 21.2C32.0586 20.65 32.1085 20.075 32.1085 19.5C32.1085 18.925 32.0586 18.35 31.9837 17.775L35.6791 14.875C36.0036 14.6 36.1035 14.125 35.8788 13.75L32.3832 7.7C32.1585 7.325 31.709 7.175 31.3095 7.325L26.965 9.075C26.0661 8.375 25.0924 7.8 24.0187 7.35L23.3695 2.725C23.2946 2.325 22.9201 2 22.4956 2H15.5044C15.0799 2 14.7054 2.325 14.6305 2.75L13.9813 7.375C12.9326 7.825 11.9339 8.4 11.035 9.1L6.69046 7.35C6.29096 7.2 5.84152 7.35 5.6168 7.725L2.12119 13.775C1.89648 14.15 1.99635 14.625 2.32094 14.9L6.0163 17.8C5.9414 18.35 5.89146 18.925 5.89146 19.5C5.89146 20.075 5.9414 20.65 6.0163 21.225L2.32094 24.125C1.99635 24.4 1.89648 24.875 2.12119 25.25L5.6168 31.3C5.84152 31.675 6.29096 31.825 6.69046 31.675L11.035 29.925C11.9339 30.625 12.9077 31.2 13.9813 31.65L14.6305 36.275C14.7054 36.675 15.0799 37 15.5044 37H22.4956C22.9201 37 23.2946 36.675 23.3695 36.25L24.0187 31.625C25.0674 31.175 26.0661 30.6 26.965 29.9L31.3095 31.65C31.709 31.8 32.1585 31.65 32.3832 31.275ZM19 24.5C16.2534 24.5 14.0063 22.25 14.0063 19.5C14.0063 16.75 16.2534 14.5 19 14.5C21.7466 14.5 23.9937 16.75 23.9937 19.5C23.9937 22.25 21.7466 24.5 19 24.5Z" stroke="white" stroke-width="3"/>
</svg>
