<svg width="727" height="466" viewBox="0 0 727 466" fill="none" xmlns="http://www.w3.org/2000/svg">
<path d="M724.234 0.412109H2.30957C1.205 0.412109 0.30957 1.30753 0.30957 2.4121V463.326C0.30957 464.431 1.205 465.326 2.30957 465.326H724.234C725.338 465.326 726.234 464.431 726.234 463.326V2.41211C726.234 1.30754 725.338 0.412109 724.234 0.412109Z" fill="#F7DFCD"/>
<path d="M703.379 58.7188H22.9697C21.8652 58.7188 20.9697 59.6142 20.9697 60.7187V435.817C20.9697 436.921 21.8652 437.817 22.9697 437.817H703.379C704.483 437.817 705.379 436.921 705.379 435.817V60.7187C705.379 59.6142 704.483 58.7188 703.379 58.7188Z" fill="white"/>
<path d="M723.924 0H2C0.89543 0 0 0.895431 0 2V28.8399C0 29.9445 0.895428 30.8399 2 30.8399H723.924C725.029 30.8399 725.924 29.9445 725.924 28.8399V2C725.924 0.89543 725.029 0 723.924 0Z" fill="#D75F04"/>
<path d="M22.9171 21.4836C26.0739 21.4836 28.6331 18.9245 28.6331 15.7677C28.6331 12.6109 26.0739 10.0518 22.9171 10.0518C19.7603 10.0518 17.2012 12.6109 17.2012 15.7677C17.2012 18.9245 19.7603 21.4836 22.9171 21.4836Z" fill="white"/>
<path d="M44.6134 21.4836C47.7702 21.4836 50.3293 18.9245 50.3293 15.7677C50.3293 12.6109 47.7702 10.0518 44.6134 10.0518C41.4566 10.0518 38.8975 12.6109 38.8975 15.7677C38.8975 18.9245 41.4566 21.4836 44.6134 21.4836Z" fill="white"/>
<path d="M66.3097 21.4836C69.4665 21.4836 72.0256 18.9245 72.0256 15.7677C72.0256 12.6109 69.4665 10.0518 66.3097 10.0518C63.1529 10.0518 60.5938 12.6109 60.5938 15.7677C60.5938 18.9245 63.1529 21.4836 66.3097 21.4836Z" fill="white"/>
<path d="M164.97 113.674C156.959 113.674 149.027 115.252 141.626 118.317C134.225 121.383 127.501 125.876 121.836 131.54C116.172 137.205 111.679 143.929 108.613 151.33C105.548 158.731 103.97 166.663 103.97 174.674C103.97 182.684 105.547 190.616 108.613 198.017C111.678 205.418 116.172 212.143 121.836 217.807C127.5 223.472 134.225 227.965 141.626 231.03C149.027 234.096 156.959 235.674 164.969 235.674C181.148 235.674 196.663 229.247 208.103 217.807C219.543 206.368 225.97 190.852 225.97 174.674C225.97 158.496 219.543 142.98 208.103 131.54C196.663 120.101 181.148 113.674 164.97 113.674Z" fill="#D75F04" fill-opacity="0.2"/>
<path d="M607.709 225.674H287.231C283.183 225.674 279.302 224.093 276.44 221.28C273.578 218.467 271.97 214.652 271.97 210.674C271.97 206.696 273.578 202.88 276.44 200.067C279.302 197.254 283.183 195.674 287.231 195.674H607.709C611.756 195.674 615.638 197.254 618.5 200.067C621.362 202.88 622.97 206.696 622.97 210.674C622.97 214.652 621.362 218.467 618.5 221.28C615.638 224.093 611.756 225.674 607.709 225.674Z" fill="#D75F04" fill-opacity="0.2"/>
<path d="M388.665 161.674H287.274C283.215 161.674 279.322 160.041 276.452 157.134C273.582 154.227 271.97 150.285 271.97 146.174C271.97 142.063 273.582 138.121 276.452 135.214C279.322 132.307 283.215 130.674 287.274 130.674H388.665C392.724 130.674 396.617 132.307 399.487 135.214C402.357 138.121 403.97 142.063 403.97 146.174C403.97 150.285 402.357 154.227 399.487 157.134C396.617 160.041 392.724 161.674 388.665 161.674Z" fill="#D75F04" fill-opacity="0.2"/>
<path d="M164.97 265.674C156.959 265.674 149.027 267.252 141.626 270.317C134.225 273.383 127.501 277.876 121.836 283.54C116.172 289.205 111.679 295.929 108.613 303.33C105.548 310.731 103.97 318.663 103.97 326.674C103.97 334.684 105.547 342.616 108.613 350.017C111.678 357.418 116.172 364.143 121.836 369.807C127.5 375.472 134.225 379.965 141.626 383.03C149.027 386.096 156.959 387.674 164.969 387.674C181.148 387.674 196.663 381.247 208.103 369.807C219.543 358.368 225.97 342.852 225.97 326.674C225.97 310.496 219.543 294.98 208.103 283.54C196.663 272.101 181.148 265.674 164.97 265.674Z" fill="#D75F04"/>
<path d="M607.709 377.674H287.231C283.183 377.674 279.302 376.093 276.44 373.28C273.578 370.467 271.97 366.652 271.97 362.674C271.97 358.696 273.578 354.88 276.44 352.067C279.302 349.254 283.183 347.674 287.231 347.674H607.709C611.756 347.674 615.638 349.254 618.5 352.067C621.362 354.88 622.97 358.696 622.97 362.674C622.97 366.652 621.362 370.467 618.5 373.28C615.638 376.093 611.756 377.674 607.709 377.674Z" fill="#D75F04"/>
<path d="M388.665 313.674H287.274C283.215 313.674 279.322 312.041 276.452 309.134C273.582 306.227 271.97 302.285 271.97 298.174C271.97 294.063 273.582 290.121 276.452 287.214C279.322 284.307 283.215 282.674 287.274 282.674H388.665C392.724 282.674 396.617 284.307 399.487 287.214C402.357 290.121 403.97 294.063 403.97 298.174C403.97 302.285 402.357 306.227 399.487 309.134C396.617 312.041 392.724 313.674 388.665 313.674Z" fill="#D75F04"/>
<path d="M160.902 343.14C159.912 343.142 158.948 342.822 158.156 342.228L158.107 342.191L147.766 334.28C146.8 333.538 146.168 332.443 146.009 331.235C145.85 330.028 146.177 328.806 146.918 327.84C147.659 326.873 148.754 326.24 149.961 326.08C151.169 325.92 152.391 326.246 153.358 326.986L160.056 332.122L175.885 311.473C176.252 310.994 176.709 310.592 177.232 310.29C177.754 309.988 178.331 309.792 178.929 309.713C179.527 309.634 180.135 309.674 180.717 309.83C181.3 309.986 181.846 310.255 182.325 310.622L182.327 310.623L182.228 310.759L182.329 310.623C183.295 311.365 183.927 312.46 184.086 313.668C184.246 314.876 183.919 316.097 183.179 317.065L164.561 341.343C164.131 341.902 163.577 342.355 162.943 342.665C162.309 342.976 161.612 343.137 160.906 343.135L160.902 343.14Z" fill="white"/>
</svg>
