<svg width="215" height="215" viewBox="0 0 215 215" fill="none" xmlns="http://www.w3.org/2000/svg">
<rect width="215" height="215" rx="2" fill="#D75F04"/>
<path d="M96.8554 134.207C94.7995 134.207 93.0221 135.324 92.0555 136.966H76.3714L83.7482 122.919C84.3806 123.07 85.0325 123.172 85.7122 123.172C90.3199 123.172 94.0696 119.459 94.0696 114.897C94.0696 110.334 90.3199 106.621 85.7122 106.621C81.1045 106.621 77.3548 110.334 77.3548 114.897C77.3548 116.77 78.0095 118.477 79.0709 119.865L69.3122 138.455C69.0923 138.875 68.9854 139.345 69.0016 139.818C69.0178 140.291 69.1567 140.752 69.4049 141.156C69.6531 141.561 70.0023 141.896 70.4188 142.128C70.8353 142.36 71.3052 142.482 71.7832 142.483H92.0555C93.0221 144.124 94.7995 145.241 96.8554 145.241C98.3331 145.241 99.7502 144.66 100.795 143.625C101.84 142.591 102.427 141.187 102.427 139.724C102.427 138.261 101.84 136.858 100.795 135.823C99.7502 134.788 98.3331 134.207 96.8554 134.207ZM85.7122 112.138C86.4295 112.17 87.1068 112.474 87.603 112.988C88.0992 113.502 88.3762 114.186 88.3762 114.897C88.3762 115.608 88.0992 116.291 87.603 116.805C87.1068 117.319 86.4295 117.623 85.7122 117.655C84.9734 117.655 84.2648 117.365 83.7424 116.847C83.2199 116.33 82.9264 115.628 82.9264 114.897C82.9264 114.165 83.2199 113.463 83.7424 112.946C84.2648 112.429 84.9734 112.138 85.7122 112.138ZM146.685 138.452L135.43 117.015C135.889 115.922 135.981 114.712 135.692 113.563C135.403 112.414 134.749 111.388 133.825 110.636C132.902 109.883 131.759 109.445 130.565 109.386C129.37 109.327 128.189 109.65 127.194 110.307C126.199 110.964 125.445 111.92 125.041 113.035C124.638 114.149 124.607 115.362 124.953 116.496C125.3 117.629 126.005 118.621 126.965 119.327C127.925 120.033 129.089 120.414 130.285 120.414C130.494 120.414 130.694 120.375 130.898 120.35L139.626 136.966H126.987C126.414 135.356 125.353 133.962 123.948 132.974C122.544 131.986 120.865 131.453 119.142 131.448C114.534 131.448 110.784 135.161 110.784 139.724C110.784 144.287 114.534 148 119.142 148C120.865 147.995 122.544 147.462 123.948 146.474C125.353 145.486 126.414 144.092 126.987 142.483H144.214C144.693 142.483 145.163 142.361 145.581 142.128C145.998 141.896 146.348 141.56 146.596 141.155C146.844 140.75 146.983 140.288 146.999 139.814C147.014 139.34 146.906 138.873 146.685 138.452ZM119.142 142.483C118.424 142.451 117.747 142.146 117.251 141.633C116.755 141.119 116.478 140.435 116.478 139.724C116.478 139.013 116.755 138.33 117.251 137.816C117.747 137.302 118.424 136.997 119.142 136.966C119.859 136.997 120.536 137.302 121.033 137.816C121.529 138.33 121.806 139.013 121.806 139.724C121.806 140.435 121.529 141.119 121.033 141.633C120.536 142.146 119.859 142.451 119.142 142.483ZM121.928 87.3103C121.265 87.317 120.606 87.4022 119.964 87.5641L110.47 69.4897C109.99 68.571 108.993 68 107.999 68C107.004 68 106.007 68.571 105.528 69.4869L94.6825 90.1324C94.4819 90.1076 94.2813 90.069 94.0696 90.069C92.8739 90.0686 91.7097 90.4491 90.7492 91.1543C89.7888 91.8596 89.0829 92.8521 88.7359 93.9852C88.3889 95.1183 88.4193 96.3319 88.8224 97.4466C89.2256 98.5613 89.9803 99.518 90.9749 100.175C91.9694 100.833 93.1511 101.156 94.3454 101.097C95.5396 101.038 96.683 100.6 97.6066 99.8476C98.5301 99.0956 99.1848 98.0693 99.474 96.9203C99.7631 95.7714 99.6713 94.5609 99.2122 93.4676L107.999 76.7393L115.286 90.6152C114.179 92.0408 113.576 93.7876 113.57 95.5862C113.57 100.149 117.32 103.862 121.928 103.862C126.535 103.862 130.285 100.149 130.285 95.5862C130.285 91.0234 126.535 87.3103 121.928 87.3103ZM121.928 98.3448C121.21 98.3131 120.533 98.0085 120.037 97.4947C119.541 96.9808 119.264 96.2972 119.264 95.5862C119.264 94.8752 119.541 94.1916 120.037 93.6777C120.533 93.1639 121.21 92.8594 121.928 92.8276C122.645 92.8594 123.322 93.1639 123.818 93.6777C124.315 94.1916 124.591 94.8752 124.591 95.5862C124.591 96.2972 124.315 96.9808 123.818 97.4947C123.322 98.0085 122.645 98.3131 121.928 98.3448Z" fill="white"/>
</svg>
