<svg width="215" height="215" viewBox="0 0 215 215" fill="none" xmlns="http://www.w3.org/2000/svg">
<rect width="215" height="215" rx="2" fill="#D75F04"/>
<path d="M137.792 77.6793C134.793 74.6192 131.214 72.1873 127.264 70.5254C123.315 68.8636 119.074 68.0051 114.789 68.0001H114.664C110.398 67.9884 106.171 68.8235 102.229 70.4571C98.2877 72.0908 94.7096 74.4904 91.7022 77.517L68.525 100.977C67.544 101.97 66.9958 103.311 67 104.706C67.0043 106.102 67.5606 107.439 68.5476 108.426L79.3626 119.241C79.8519 119.734 80.434 120.124 81.0753 120.39C81.7166 120.655 82.4043 120.791 83.0984 120.788H83.1286C83.8282 120.787 84.5204 120.646 85.1646 120.373C85.8088 120.1 86.3919 119.701 86.8795 119.2L109.849 95.6527C111.111 94.3972 112.812 93.6836 114.592 93.6639C116.371 93.6442 118.088 94.3198 119.377 95.5471C120.014 96.1662 120.52 96.9065 120.867 97.7244C121.213 98.5423 121.391 99.4212 121.392 100.309C121.406 102.205 120.667 104.028 119.34 105.381L95.8342 128.117C95.3313 128.604 94.9305 129.187 94.655 129.832C94.3796 130.476 94.235 131.168 94.2298 131.869C94.2245 132.57 94.3586 133.264 94.6244 133.912C94.8901 134.561 95.2821 135.15 95.7776 135.645L106.596 146.46C107.583 147.44 108.915 147.993 110.306 148C111.696 148.007 113.034 147.467 114.03 146.498L137.351 123.671C150.06 110.966 150.26 90.332 137.792 77.6793ZM83.6494 116.034C83.5795 116.105 83.4961 116.162 83.4041 116.201C83.3122 116.24 83.2134 116.26 83.1135 116.26C82.9141 116.256 82.7233 116.178 82.5777 116.041L71.7589 105.226C71.6183 105.085 71.5394 104.894 71.5394 104.694C71.5394 104.495 71.6183 104.304 71.7589 104.162L81.2758 94.5207L93.1021 106.347L83.6494 116.034ZM110.861 143.26C110.719 143.401 110.528 143.479 110.328 143.479C110.129 143.479 109.938 143.401 109.796 143.26L98.9813 132.445C98.9103 132.374 98.854 132.29 98.8157 132.198C98.7775 132.105 98.7581 132.006 98.7587 131.905C98.7596 131.806 98.7801 131.708 98.8189 131.617C98.8578 131.525 98.9143 131.443 98.9851 131.373L108.717 121.962L120.543 133.785L110.861 143.26ZM134.185 120.453L123.8 130.619L111.993 118.811L122.521 108.622L122.547 108.592C123.636 107.498 124.496 106.199 125.079 104.77C125.662 103.341 125.956 101.811 125.943 100.268C125.941 98.7778 125.639 97.3035 125.055 95.9325C124.472 94.5615 123.619 93.3217 122.547 92.2867C120.399 90.2417 117.538 89.1155 114.572 89.1479C111.607 89.1804 108.771 90.3688 106.668 92.4603L96.2644 103.094L84.4569 91.2981L94.9172 80.7095C97.5036 78.107 100.581 76.0437 103.971 74.6394C107.36 73.235 110.995 72.5175 114.664 72.5284H114.77C118.457 72.5323 122.107 73.2711 125.505 74.7017C128.903 76.1323 131.982 78.226 134.562 80.8604C145.294 91.7433 145.106 109.509 134.185 120.453Z" fill="white" stroke="white"/>
</svg>
