<svg width="215" height="215" viewBox="0 0 215 215" fill="none" xmlns="http://www.w3.org/2000/svg">
<path d="M0 2C0 0.895429 0.895431 0 2 0H213C214.105 0 215 0.895431 215 2V213C215 214.105 214.105 215 213 215H2C0.895429 215 0 214.105 0 213V2Z" fill="#D75F04"/>
<path d="M107 74V141.692M67 107.846H147M83.9231 129.385C89.2274 129.385 94.3145 127.277 98.0652 123.527C101.816 119.776 103.923 114.689 103.923 109.385V107.846M130.077 129.385C124.773 129.385 119.686 127.277 115.935 123.527C112.184 119.776 110.077 114.689 110.077 109.385V107.846M101.966 89.9179C107.747 95.6985 106.315 107.321 106.315 107.321C106.315 107.321 94.6923 108.749 88.9159 102.968C88.0587 102.111 87.3788 101.093 86.9149 99.9735C86.451 98.8536 86.2123 97.6532 86.2123 96.441C86.2123 95.2288 86.451 94.0285 86.9149 92.9085C87.3788 91.7886 88.0587 90.771 88.9159 89.9138C89.7731 89.0567 90.7907 88.3767 91.9106 87.9129C93.0305 87.449 94.2309 87.2102 95.4431 87.2102C96.6553 87.2102 97.8556 87.449 98.9756 87.9129C100.095 88.3767 101.113 89.0567 101.97 89.9138M73.1538 141.692H140.846C142.478 141.692 144.044 141.044 145.198 139.89C146.352 138.736 147 137.171 147 135.538V80.1538C147 78.5217 146.352 76.9565 145.198 75.8024C144.044 74.6483 142.478 74 140.846 74H73.1538C71.5217 74 69.9565 74.6483 68.8024 75.8024C67.6484 76.9565 67 78.5217 67 80.1538V135.538C67 137.171 67.6484 138.736 68.8024 139.89C69.9565 141.044 71.5217 141.692 73.1538 141.692ZM124.932 102.964C119.152 108.749 107.529 107.317 107.529 107.317C107.529 107.317 106.097 95.6944 111.878 89.9138C113.609 88.1827 115.957 87.2102 118.405 87.2102C120.853 87.2102 123.201 88.1827 124.932 89.9138C126.663 91.645 127.636 93.9929 127.636 96.441C127.636 98.8892 126.663 101.233 124.932 102.964Z" stroke="white" stroke-width="6" stroke-linecap="round" stroke-linejoin="round"/>
</svg>
