<svg width="215" height="215" viewBox="0 0 215 215" fill="none" xmlns="http://www.w3.org/2000/svg">
<rect width="215" height="215" rx="2" fill="#D75F04"/>
<path d="M71.8024 100.941C70.7231 100.941 69.8196 100.577 69.0918 99.8494C68.3639 99.1216 68 98.218 68 97.1388V71.8024C68 70.7231 68.3639 69.8196 69.0918 69.0918C69.8196 68.3639 70.7231 68 71.8024 68H97.1388C98.218 68 99.1216 68.3639 99.8494 69.0918C100.577 69.8196 100.941 70.7231 100.941 71.8024V97.1388C100.941 98.218 100.577 99.1216 99.8494 99.8494C99.1216 100.577 98.218 100.941 97.1388 100.941H71.8024ZM118.861 100.941C117.782 100.941 116.878 100.577 116.151 99.8494C115.423 99.1216 115.059 98.218 115.059 97.1388V71.8024C115.059 70.7231 115.423 69.8196 116.151 69.0918C116.878 68.3639 117.782 68 118.861 68H144.198C145.277 68 146.18 68.3639 146.908 69.0918C147.636 69.8196 148 70.7231 148 71.8024V97.1388C148 98.218 147.636 99.1216 146.908 99.8494C146.18 100.577 145.277 100.941 144.198 100.941H118.861ZM71.8024 148C70.7231 148 69.8196 147.636 69.0918 146.908C68.3639 146.18 68 145.277 68 144.198V118.861C68 117.782 68.3639 116.878 69.0918 116.151C69.8196 115.423 70.7231 115.059 71.8024 115.059H97.1388C98.218 115.059 99.1216 115.423 99.8494 116.151C100.577 116.878 100.941 117.782 100.941 118.861V144.198C100.941 145.277 100.577 146.18 99.8494 146.908C99.1216 147.636 98.218 148 97.1388 148H71.8024ZM131.529 148C130.861 148 130.301 147.774 129.849 147.322C129.401 146.874 129.176 146.315 129.176 145.647V133.882H117.294C116.685 133.882 116.16 133.656 115.718 133.205C115.278 132.753 115.059 132.193 115.059 131.525C115.059 130.856 115.285 130.298 115.736 129.849C116.188 129.401 116.747 129.176 117.412 129.176H129.176V117.294C129.176 116.685 129.402 116.16 129.854 115.718C130.306 115.278 130.866 115.059 131.534 115.059C132.202 115.059 132.761 115.285 133.209 115.736C133.658 116.188 133.882 116.747 133.882 117.412V129.176H145.765C146.373 129.176 146.899 129.402 147.341 129.854C147.78 130.306 148 130.866 148 131.534C148 132.202 147.774 132.761 147.322 133.209C146.874 133.658 146.315 133.882 145.647 133.882H133.882V145.765C133.882 146.373 133.656 146.899 133.205 147.341C132.753 147.78 132.198 148 131.529 148ZM119.765 72.7059V96.2353H143.294V72.7059H119.765ZM72.7059 72.7059V96.2353H96.2353V72.7059H72.7059ZM72.7059 119.765V143.294H96.2353V119.765H72.7059Z" fill="white" stroke="white" stroke-width="0.8"/>
</svg>
