<svg width="31" height="33" viewBox="0 0 31 33" fill="none" xmlns="http://www.w3.org/2000/svg">
<path d="M5.33203 33C3.94314 33 2.76259 32.5139 1.79036 31.5417C0.818142 30.5695 0.332031 29.3889 0.332031 28V24.6667C0.332031 24.1945 0.491753 23.7986 0.811198 23.4792C1.13064 23.1597 1.52648 23 1.9987 23H5.33203V0.666667C5.33203 0.472222 5.41536 0.340278 5.58203 0.270833C5.7487 0.201389 5.90148 0.236111 6.04036 0.375L7.2487 1.58333C7.41536 1.75 7.60981 1.83333 7.83203 1.83333C8.05425 1.83333 8.2487 1.75 8.41537 1.58333L9.7487 0.25C9.91537 0.0833334 10.1098 0 10.332 0C10.5543 0 10.7487 0.0833334 10.9154 0.25L12.2487 1.58333C12.4154 1.75 12.6098 1.83333 12.832 1.83333C13.0543 1.83333 13.2487 1.75 13.4154 1.58333L14.7487 0.25C14.9154 0.0833334 15.1098 0 15.332 0C15.5543 0 15.7487 0.0833334 15.9154 0.25L17.2487 1.58333C17.4154 1.75 17.6098 1.83333 17.832 1.83333C18.0543 1.83333 18.2487 1.75 18.4154 1.58333L19.7487 0.25C19.9154 0.0833334 20.1098 0 20.332 0C20.5543 0 20.7487 0.0833334 20.9154 0.25L22.2487 1.58333C22.4154 1.75 22.6098 1.83333 22.832 1.83333C23.0543 1.83333 23.2487 1.75 23.4154 1.58333L24.7487 0.25C24.9154 0.0833334 25.1098 0 25.332 0C25.5543 0 25.7487 0.0833334 25.9154 0.25L27.2487 1.58333C27.4154 1.75 27.6098 1.83333 27.832 1.83333C28.0543 1.83333 28.2487 1.75 28.4154 1.58333L29.6237 0.375C29.7626 0.236111 29.9154 0.201389 30.082 0.270833C30.2487 0.340278 30.332 0.472222 30.332 0.666667V28C30.332 29.3889 29.8459 30.5695 28.8737 31.5417C27.9015 32.5139 26.7209 33 25.332 33H5.33203ZM25.332 29.6667C25.8043 29.6667 26.2001 29.507 26.5195 29.1875C26.839 28.8681 26.9987 28.4722 26.9987 28V4.66667H8.66537V23H21.9987C22.4709 23 22.8668 23.1597 23.1862 23.4792C23.5056 23.7986 23.6654 24.1945 23.6654 24.6667V28C23.6654 28.4722 23.8251 28.8681 24.1445 29.1875C24.464 29.507 24.8598 29.6667 25.332 29.6667ZM11.9987 8H18.6654C19.1376 8 19.5334 8.15973 19.8529 8.47917C20.1723 8.79861 20.332 9.19445 20.332 9.66667C20.332 10.1389 20.1723 10.5347 19.8529 10.8542C19.5334 11.1736 19.1376 11.3333 18.6654 11.3333H11.9987C11.5265 11.3333 11.1306 11.1736 10.8112 10.8542C10.4918 10.5347 10.332 10.1389 10.332 9.66667C10.332 9.19445 10.4918 8.79861 10.8112 8.47917C11.1306 8.15973 11.5265 8 11.9987 8ZM11.9987 13H18.6654C19.1376 13 19.5334 13.1597 19.8529 13.4792C20.1723 13.7986 20.332 14.1945 20.332 14.6667C20.332 15.1389 20.1723 15.5347 19.8529 15.8542C19.5334 16.1736 19.1376 16.3333 18.6654 16.3333H11.9987C11.5265 16.3333 11.1306 16.1736 10.8112 15.8542C10.4918 15.5347 10.332 15.1389 10.332 14.6667C10.332 14.1945 10.4918 13.7986 10.8112 13.4792C11.1306 13.1597 11.5265 13 11.9987 13ZM23.6654 11.3333C23.1931 11.3333 22.7973 11.1736 22.4779 10.8542C22.1584 10.5347 21.9987 10.1389 21.9987 9.66667C21.9987 9.19445 22.1584 8.79861 22.4779 8.47917C22.7973 8.15973 23.1931 8 23.6654 8C24.1376 8 24.5334 8.15973 24.8529 8.47917C25.1723 8.79861 25.332 9.19445 25.332 9.66667C25.332 10.1389 25.1723 10.5347 24.8529 10.8542C24.5334 11.1736 24.1376 11.3333 23.6654 11.3333ZM23.6654 16.3333C23.1931 16.3333 22.7973 16.1736 22.4779 15.8542C22.1584 15.5347 21.9987 15.1389 21.9987 14.6667C21.9987 14.1945 22.1584 13.7986 22.4779 13.4792C22.7973 13.1597 23.1931 13 23.6654 13C24.1376 13 24.5334 13.1597 24.8529 13.4792C25.1723 13.7986 25.332 14.1945 25.332 14.6667C25.332 15.1389 25.1723 15.5347 24.8529 15.8542C24.5334 16.1736 24.1376 16.3333 23.6654 16.3333ZM5.33203 29.6667H20.332V26.3333H3.66536V28C3.66536 28.4722 3.82509 28.8681 4.14453 29.1875C4.46398 29.507 4.85981 29.6667 5.33203 29.6667Z" fill="#D75F04"/>
</svg>
