<svg width="70" height="70" viewBox="0 0 70 70" fill="none" xmlns="http://www.w3.org/2000/svg">
<circle cx="35" cy="35" r="35" fill="#D75F04"/>
<path d="M32.209 39.7522L32.2015 39.7347C32.0506 39.6991 31.9006 39.6599 31.7515 39.6172L31.7403 39.6134C30.3141 39.2041 28.9971 38.482 27.8852 37.4996C26.6619 36.4205 25.7211 35.0585 25.145 33.5324C24.5688 32.0062 24.3747 30.3623 24.5797 28.744C24.7846 27.1257 25.3823 25.582 26.3207 24.2477C27.259 22.9134 28.5096 21.8288 29.9633 21.0887C31.4169 20.3485 33.0296 19.9752 34.6606 20.0013C36.2917 20.0274 37.8916 20.4521 39.3209 21.2383C40.7501 22.0246 41.9653 23.1485 42.8606 24.5122C43.7558 25.8759 44.3038 27.4378 44.4569 29.0619C44.5057 29.5782 44.0819 29.9994 43.5631 29.9994C43.0456 29.9994 42.6319 29.5782 42.5719 29.0631C42.4066 27.6422 41.8691 26.2901 41.0138 25.1435C40.1585 23.9968 39.0156 23.0964 37.7006 22.533C36.3857 21.9697 34.9454 21.7635 33.5252 21.9353C32.1051 22.1071 30.7555 22.6508 29.6128 23.5114C28.4701 24.372 27.5749 25.519 27.0176 26.8365C26.4604 28.154 26.2608 29.5953 26.4392 31.0147C26.6175 32.434 27.1674 33.7811 28.0332 34.9198C28.8991 36.0585 30.0502 36.9484 31.3703 37.4996L31.4203 37.5209C31.6703 37.6234 31.9278 37.7134 32.1903 37.7921C32.4116 37.2575 32.8114 36.8162 33.3217 36.5434C33.8319 36.2706 34.421 36.1832 34.9885 36.2962C35.5559 36.4092 36.0667 36.7154 36.4335 37.1629C36.8004 37.6103 37.0008 38.1711 37.0004 38.7497C37.001 39.3242 36.8036 39.8815 36.4415 40.3276C36.0795 40.7737 35.5748 41.0815 35.0124 41.1992C34.45 41.3168 33.8642 41.2372 33.3537 40.9737C32.8431 40.7101 32.4389 40.2788 32.209 39.7522ZM30.9765 41.3422C28.7563 40.6507 26.7876 39.3234 25.3138 37.5246C24.401 37.6316 23.5591 38.07 22.9482 38.7567C22.3373 39.4435 21.9999 40.3306 22 41.2497V42.1435C22 46.7912 27.2627 50 34.5004 50C41.7381 50 47.0007 46.6149 47.0007 42.1435V41.2497C47.0007 40.2552 46.6056 39.3013 45.9023 38.598C45.1991 37.8947 44.2452 37.4996 43.2506 37.4996H38.6942C38.9891 38.4872 38.9259 39.5472 38.5157 40.4927C38.1055 41.4382 37.3746 42.2085 36.452 42.6679C35.5294 43.1272 34.4742 43.2461 33.4725 43.0036C32.4708 42.7611 31.5869 42.1727 30.9765 41.3422ZM40.7505 29.9994C40.7505 28.1094 39.913 26.4156 38.5867 25.2693C37.9213 24.6952 37.1422 24.2679 36.3005 24.0154C35.4587 23.7628 34.5731 23.6906 33.7015 23.8034C32.8299 23.9163 31.992 24.2117 31.2423 24.6703C30.4926 25.129 29.8481 25.7406 29.3508 26.4652C28.8535 27.1899 28.5146 28.0112 28.3563 28.8757C28.1979 29.7402 28.2237 30.6283 28.4318 31.4822C28.64 32.336 29.0258 33.1364 29.5643 33.831C30.1027 34.5256 30.7815 35.0989 31.5565 35.5133C32.361 34.7792 33.4113 34.3729 34.5004 34.3745C35.5898 34.3731 36.6404 34.7793 37.4455 35.5133C38.4441 34.9798 39.2791 34.185 39.8612 33.2139C40.4434 32.2427 40.7507 31.1317 40.7505 29.9994Z" fill="white"/>
</svg>
