<svg width="22" height="23" viewBox="0 0 22 23" fill="none" xmlns="http://www.w3.org/2000/svg">
<path d="M17.5005 22.074C16.5605 22.074 15.24 21.734 13.2627 20.6292C10.8582 19.2808 8.99834 18.036 6.60686 15.6508C4.30109 13.3464 3.17903 11.8545 1.60863 8.99688C-0.165484 5.77035 0.136943 4.07908 0.475006 3.35624C0.8776 2.4923 1.47186 1.97557 2.23997 1.4627C2.67625 1.17685 3.13794 0.93182 3.61919 0.730708C3.66734 0.71 3.71213 0.690256 3.7521 0.672437C3.99048 0.565047 4.35166 0.402757 4.80915 0.576123C5.11447 0.690737 5.38704 0.925263 5.81371 1.34664C6.68873 2.20961 7.88447 4.13157 8.32559 5.07545C8.62175 5.7116 8.81775 6.13153 8.81824 6.60251C8.81824 7.15391 8.54085 7.57914 8.20423 8.03807C8.14115 8.12428 8.07854 8.20663 8.01786 8.28657C7.65139 8.76814 7.57096 8.90731 7.62394 9.1558C7.73133 9.65519 8.53218 11.1418 9.84832 12.4551C11.1645 13.7683 12.6082 14.5186 13.1095 14.6255C13.3686 14.6809 13.5107 14.5971 14.0077 14.2176C14.0789 14.1632 14.1521 14.1068 14.2287 14.0505C14.742 13.6686 15.1475 13.3984 15.6859 13.3984H15.6888C16.1574 13.3984 16.5585 13.6017 17.2231 13.9368C18.0899 14.3741 20.0697 15.5544 20.938 16.4304C21.3603 16.8561 21.5958 17.1277 21.7109 17.4326C21.8842 17.8915 21.721 18.2512 21.6146 18.492C21.5967 18.532 21.577 18.5758 21.5563 18.6245C21.3536 19.1049 21.1071 19.5656 20.82 20.0008C20.3081 20.7665 19.7894 21.3593 18.9235 21.7624C18.4789 21.9727 17.9923 22.0792 17.5005 22.074Z" fill="#D75F04"/>
</svg>
