<svg width="42" height="28" viewBox="0 0 42 28" fill="none" xmlns="http://www.w3.org/2000/svg">
<path d="M0.85 27V27.15H1H41H41.15V27V21.8929C41.15 20.8317 40.6305 19.9138 39.8112 19.1405C38.9931 18.3684 37.8672 17.7313 36.6272 17.2249C34.1474 16.2122 31.1736 15.7071 29.1818 15.7071C26.9977 15.7071 23.6135 16.3324 21.0005 17.5484C18.3865 16.3139 15.0017 15.7071 12.8182 15.7071C10.8264 15.7071 7.8526 16.2122 5.37283 17.2249C4.13277 17.7313 3.00694 18.3684 2.18881 19.1405C1.36948 19.9138 0.85 20.8317 0.85 21.8929V27ZM3.87727 24.0643V21.8929C3.87727 21.8221 3.92112 21.7119 4.04947 21.5633C4.17419 21.4189 4.36235 21.257 4.60951 21.0851C5.10305 20.7419 5.81254 20.3719 6.66479 20.0311C8.36926 19.3494 10.623 18.7929 12.8182 18.7929C15.0134 18.7929 17.2671 19.3494 18.9716 20.0311C19.8238 20.3719 20.5333 20.7419 21.0269 21.0851C21.274 21.257 21.4622 21.4189 21.5869 21.5633C21.7152 21.7119 21.7591 21.8221 21.7591 21.8929V24.0643H3.87727ZM38.1227 24.0643H24.7864V21.8929C24.7864 21.0655 24.462 20.343 23.946 19.6986C25.4948 19.1804 27.3566 18.7929 29.1818 18.7929C31.377 18.7929 33.6307 19.3494 35.3352 20.0311C36.1875 20.3719 36.8969 20.7419 37.3905 21.0851C37.6376 21.257 37.8258 21.4189 37.9505 21.5633C38.0789 21.7119 38.1227 21.8221 38.1227 21.8929V24.0643ZM12.8182 14.15C16.4131 14.15 19.3318 11.1641 19.3318 7.5C19.3318 3.83589 16.4131 0.85 12.8182 0.85C9.22327 0.85 6.30455 3.83589 6.30455 7.5C6.30455 11.1641 9.22327 14.15 12.8182 14.15ZM12.8182 3.93571C14.7324 3.93571 16.3045 5.53697 16.3045 7.5C16.3045 9.46303 14.7324 11.0643 12.8182 11.0643C10.904 11.0643 9.33182 9.46303 9.33182 7.5C9.33182 5.53697 10.904 3.93571 12.8182 3.93571ZM29.1818 14.15C32.7767 14.15 35.6955 11.1641 35.6955 7.5C35.6955 3.83589 32.7767 0.85 29.1818 0.85C25.5869 0.85 22.6682 3.83589 22.6682 7.5C22.6682 11.1641 25.5869 14.15 29.1818 14.15ZM29.1818 3.93571C31.096 3.93571 32.6682 5.53697 32.6682 7.5C32.6682 9.46303 31.096 11.0643 29.1818 11.0643C27.2676 11.0643 25.6955 9.46303 25.6955 7.5C25.6955 5.53697 27.2676 3.93571 29.1818 3.93571Z" fill="white" stroke="white" stroke-width="0.3"/>
</svg>
