<svg width="44" height="50" viewBox="0 0 44 50" fill="none" xmlns="http://www.w3.org/2000/svg">
<path d="M19.4146 0.0414599L41.9301 4.65674C42.8307 4.84135 43.4783 5.62902 43.4783 6.53977V43.462C43.4782 43.9044 43.3242 44.3333 43.0422 44.6763C42.7602 45.0193 42.3674 45.2555 41.9301 45.345L19.4146 49.9603C19.1326 50.0181 18.8412 50.0129 18.5615 49.9453C18.2817 49.8776 18.0207 49.7491 17.7973 49.5692C17.5739 49.3892 17.3937 49.1623 17.2697 48.9047C17.1458 48.6472 17.0812 48.3656 17.0807 48.0804V1.92449C17.0805 1.63882 17.1446 1.3567 17.2682 1.09862C17.3919 0.84054 17.572 0.612993 17.7955 0.432513C18.019 0.252034 18.2803 0.123155 18.5603 0.0552461C18.8404 -0.0126633 19.1322 -0.0163598 19.4146 0.0414599ZM12.4224 3.46292L12.6211 46.5296L12.4224 46.5404H1.94099C1.4605 46.5402 0.997151 46.3634 0.640613 46.0443C0.284075 45.7251 0.0596882 45.2863 0.0108695 44.8127L0 44.6174V5.38749C0 4.39059 0.763975 3.57215 1.74224 3.47369L1.94099 3.46292H12.4224ZM25.6211 22.6932C25.0034 22.6932 24.4109 22.9364 23.9741 23.3691C23.5373 23.8019 23.2919 24.3889 23.2919 25.0009C23.2919 25.6129 23.5373 26.1999 23.9741 26.6326C24.4109 27.0654 25.0034 27.3085 25.6211 27.3085C26.2389 27.3085 26.8313 27.0654 27.2681 26.6326C27.7049 26.1999 27.9503 25.6129 27.9503 25.0009C27.9503 24.3889 27.7049 23.8019 27.2681 23.3691C26.8313 22.9364 26.2389 22.6932 25.6211 22.6932Z" fill="#D75F04"/>
</svg>
