<svg width="20" height="22" viewBox="0 0 20 22" fill="none" xmlns="http://www.w3.org/2000/svg">
<path d="M8.54242 0.0181894L18.4493 2.04891C18.8455 2.13014 19.1304 2.47672 19.1304 2.87745V19.1232C19.1304 19.3179 19.0627 19.5066 18.9386 19.6575C18.8145 19.8084 18.6417 19.9124 18.4493 19.9518L8.54242 21.9825C8.41835 22.0079 8.29013 22.0056 8.16704 21.9759C8.04396 21.9461 7.9291 21.8896 7.8308 21.8104C7.7325 21.7312 7.65321 21.6313 7.59868 21.518C7.54415 21.4047 7.51575 21.2808 7.51553 21.1553V0.846724C7.51544 0.721029 7.54362 0.596894 7.59802 0.483339C7.65241 0.369785 7.73166 0.269664 7.83001 0.190253C7.92835 0.110842 8.04331 0.0541354 8.16655 0.0242553C8.28978 -0.00562476 8.41818 -0.00725124 8.54242 0.0181894ZM5.46584 1.52363L5.55329 20.473L5.46584 20.4777H0.854037C0.642618 20.4776 0.438747 20.3999 0.28187 20.2594C0.124993 20.119 0.0262628 19.9259 0.00478259 19.7176L0 19.6316V2.37044C0 1.93181 0.336149 1.57169 0.766584 1.52837L0.854037 1.52363H5.46584ZM11.2733 9.98498C11.0015 9.98498 10.7408 10.092 10.5486 10.2824C10.3564 10.4728 10.2484 10.731 10.2484 11.0003C10.2484 11.2696 10.3564 11.5279 10.5486 11.7183C10.7408 11.9087 11.0015 12.0157 11.2733 12.0157C11.5451 12.0157 11.8058 11.9087 11.998 11.7183C12.1902 11.5279 12.2981 11.2696 12.2981 11.0003C12.2981 10.731 12.1902 10.4728 11.998 10.2824C11.8058 10.092 11.5451 9.98498 11.2733 9.98498Z" fill="white"/>
</svg>
