<svg width="25" height="30" viewBox="0 0 25 30" fill="none" xmlns="http://www.w3.org/2000/svg">
<path d="M10.209 19.7522L10.2015 19.7347C10.0506 19.6991 9.90058 19.6599 9.75153 19.6172L9.74028 19.6134C8.31411 19.2041 6.99713 18.482 5.88517 17.4996C4.66187 16.4205 3.72113 15.0585 3.14498 13.5324C2.56882 12.0062 2.37475 10.3623 2.57967 8.74401C2.7846 7.12568 3.3823 5.58204 4.32067 4.2477C5.25904 2.91336 6.50958 1.82883 7.96325 1.08867C9.41693 0.348509 11.0296 -0.0248048 12.6606 0.00127872C14.2917 0.0273623 15.8916 0.452051 17.3209 1.23831C18.7501 2.02458 19.9653 3.14854 20.8606 4.51221C21.7558 5.87587 22.3038 7.43783 22.4569 9.06189C22.5057 9.57815 22.0819 9.99941 21.5631 9.99941C21.0456 9.99941 20.6319 9.57815 20.5719 9.06314C20.4066 7.64221 19.8691 6.29009 19.0138 5.14347C18.1585 3.99685 17.0156 3.09636 15.7006 2.53305C14.3857 1.96973 12.9454 1.76354 11.5252 1.93534C10.1051 2.10713 8.75546 2.65081 7.61278 3.51141C6.47011 4.37202 5.5749 5.51905 5.01764 6.83655C4.46038 8.15405 4.26083 9.59532 4.43916 11.0147C4.61748 12.434 5.16737 13.7811 6.03323 14.9198C6.89909 16.0585 8.05022 16.9484 9.37027 17.4996L9.42028 17.5209C9.67028 17.6234 9.92779 17.7134 10.1903 17.7921C10.4116 17.2575 10.8114 16.8162 11.3217 16.5434C11.8319 16.2706 12.421 16.1832 12.9885 16.2962C13.5559 16.4092 14.0667 16.7154 14.4335 17.1629C14.8004 17.6103 15.0008 18.1711 15.0004 18.7497C15.001 19.3242 14.8036 19.8815 14.4415 20.3276C14.0795 20.7737 13.5748 21.0815 13.0124 21.1992C12.45 21.3168 11.8642 21.2372 11.3537 20.9737C10.8431 20.7101 10.4389 20.2788 10.209 19.7522ZM8.97651 21.3422C6.75632 20.6507 4.78758 19.3234 3.31385 17.5246C2.40096 17.6316 1.55913 18.07 0.948228 18.7567C0.337323 19.4435 -0.000113121 20.3306 2.84466e-08 21.2497V22.1435C2.84466e-08 26.7912 5.26265 30 12.5004 30C19.7381 30 25.0007 26.6149 25.0007 22.1435V21.2497C25.0007 20.2552 24.6056 19.3013 23.9023 18.598C23.1991 17.8947 22.2452 17.4996 21.2506 17.4996H16.6942C16.9891 18.4872 16.9259 19.5472 16.5157 20.4927C16.1055 21.4382 15.3746 22.2085 14.452 22.6679C13.5294 23.1272 12.4742 23.2461 11.4725 23.0036C10.4708 22.7611 9.58685 22.1727 8.97651 21.3422ZM18.7505 9.99941C18.7505 8.10936 17.913 6.41556 16.5867 5.26928C15.9213 4.69521 15.1422 4.26794 14.3005 4.01536C13.4587 3.76278 12.5731 3.69056 11.7015 3.80342C10.8299 3.91629 9.99196 4.21169 9.24228 4.67035C8.4926 5.12901 7.84808 5.74062 7.35079 6.46525C6.8535 7.18987 6.51461 8.01123 6.35626 8.8757C6.19791 9.74018 6.22365 10.6283 6.4318 11.4822C6.63995 12.336 7.02584 13.1364 7.56426 13.831C8.10269 14.5256 8.78155 15.0989 9.55653 15.5133C10.361 14.7792 11.4113 14.3729 12.5004 14.3745C13.5898 14.3731 14.6404 14.7793 15.4455 15.5133C16.4441 14.9798 17.2791 14.185 17.8612 13.2139C18.4434 12.2427 18.7507 11.1317 18.7505 9.99941Z" fill="white"/>
</svg>
