<svg width="27" height="30" viewBox="0 0 27 30" fill="none" xmlns="http://www.w3.org/2000/svg">
<path d="M16.7698 23.3319C15.749 23.3319 14.8862 22.9794 14.1814 22.2746C13.4766 21.5698 13.1242 20.707 13.1242 19.6863C13.1242 18.6655 13.4766 17.8027 14.1814 17.0979C14.8862 16.3931 15.749 16.0406 16.7698 16.0406C17.7905 16.0406 18.6533 16.3931 19.3581 17.0979C20.063 17.8027 20.4154 18.6655 20.4154 19.6863C20.4154 20.707 20.063 21.5698 19.3581 22.2746C18.6533 22.9794 17.7905 23.3319 16.7698 23.3319ZM2.91648 29.1648C2.11445 29.1648 1.42786 28.8792 0.856716 28.3081C0.285572 27.737 0 27.0504 0 26.2483V5.83296C0 5.03093 0.285572 4.34434 0.856716 3.7732C1.42786 3.20205 2.11445 2.91648 2.91648 2.91648H4.37472V1.45824C4.37472 1.04507 4.51447 0.69874 4.79397 0.419244C5.07346 0.139748 5.41979 0 5.83296 0C6.24613 0 6.59246 0.139748 6.87196 0.419244C7.15145 0.69874 7.2912 1.04507 7.2912 1.45824V2.91648H18.9571V1.45824C18.9571 1.04507 19.0969 0.69874 19.3764 0.419244C19.6559 0.139748 20.0022 0 20.4154 0C20.8285 0 21.1749 0.139748 21.4544 0.419244C21.7339 0.69874 21.8736 1.04507 21.8736 1.45824V2.91648H23.3318C24.1339 2.91648 24.8205 3.20205 25.3916 3.7732C25.9628 4.34434 26.2483 5.03093 26.2483 5.83296V26.2483C26.2483 27.0504 25.9628 27.737 25.3916 28.3081C24.8205 28.8792 24.1339 29.1648 23.3318 29.1648H2.91648ZM2.91648 26.2483H23.3318V11.6659H2.91648V26.2483ZM2.91648 8.74944H23.3318V5.83296H2.91648V8.74944Z" fill="#D75F04"/>
</svg>
