<svg width="30" height="31" viewBox="0 0 30 31" fill="none" xmlns="http://www.w3.org/2000/svg">
<path d="M15 16.705C14.5278 16.705 14.1322 16.5446 13.8133 16.2239C13.4944 15.9031 13.3344 15.5067 13.3333 15.0345C13.3333 14.5612 13.4933 14.1647 13.8133 13.8451C14.1333 13.5255 14.5289 13.3651 15 13.364C15.4722 13.364 15.8683 13.5244 16.1883 13.8451C16.5083 14.1658 16.6678 14.5623 16.6667 15.0345C16.6667 15.5078 16.5067 15.9048 16.1867 16.2255C15.8667 16.5463 15.4711 16.7061 15 16.705ZM15.005 30.069C12.9317 30.069 10.9817 29.6747 9.155 28.8863C7.32944 28.0967 5.74111 27.0253 4.39 25.6722C3.03889 24.3202 1.96944 22.7299 1.18167 20.9013C0.393889 19.0726 0 17.1187 0 15.0395C0 12.9614 0.393333 11.0069 1.18 9.17605C1.96778 7.34629 3.03667 5.75431 4.38667 4.40009C5.73556 3.04587 7.32222 1.97397 9.14667 1.18438C10.9711 0.394795 12.9206 0 14.995 0C17.0683 0 19.0183 0.394237 20.845 1.18271C22.6706 1.9723 24.2589 3.04365 25.61 4.39675C26.9611 5.74874 28.0306 7.33906 28.8183 9.16769C29.6061 10.9963 30 12.9503 30 15.0295C30 17.1076 29.6067 19.0621 28.82 20.8929C28.0322 22.7227 26.9633 24.3147 25.6133 25.6689C24.2644 27.0231 22.6778 28.095 20.8533 28.8846C19.0289 29.6742 17.0794 30.069 15.005 30.069ZM15 28.3985C18.7222 28.3985 21.875 27.1038 24.4583 24.5146C27.0417 21.9253 28.3333 18.7653 28.3333 15.0345C28.3333 11.3037 27.0417 8.14368 24.4583 5.55441C21.875 2.96513 18.7222 1.6705 15 1.6705C11.2778 1.6705 8.125 2.96513 5.54167 5.55441C2.95833 8.14368 1.66667 11.3037 1.66667 15.0345C1.66667 18.7653 2.95833 21.9253 5.54167 24.5146C8.125 27.1038 11.2778 28.3985 15 28.3985ZM15 28.3985C11.2778 28.3985 8.125 27.1038 5.54167 24.5146C2.95833 21.9253 1.66667 18.7653 1.66667 15.0345C1.66667 11.3037 2.95833 8.14368 5.54167 5.55441C8.125 2.96513 11.2778 1.6705 15 1.6705C18.7222 1.6705 21.875 2.96513 24.4583 5.55441C27.0417 8.14368 28.3333 11.3037 28.3333 15.0345C28.3333 18.7653 27.0417 21.9253 24.4583 24.5146C21.875 27.1038 18.7222 28.3985 15 28.3985ZM17.0867 17.6622C17.21 17.5998 17.3144 17.5258 17.4 17.44C17.4856 17.3542 17.5594 17.2496 17.6217 17.1259L22.08 8.80687C22.24 8.52845 22.2094 8.27899 21.9883 8.05848C21.7672 7.83909 21.5094 7.799 21.215 7.93821L12.915 12.4068C12.7906 12.4692 12.685 12.5432 12.5983 12.629C12.5139 12.7147 12.4406 12.8194 12.3783 12.943L7.92 21.2621C7.76 21.5628 7.78944 21.8228 8.00833 22.0422C8.22722 22.2616 8.48611 22.2911 8.785 22.1308L17.0867 17.6622Z" fill="white"/>
</svg>
