<svg width="30" height="30" viewBox="0 0 30 30" fill="none" xmlns="http://www.w3.org/2000/svg">
<path d="M12.9621 16.2027C13.4212 16.2027 13.806 16.0474 14.1166 15.7368C14.4271 15.4263 14.5824 15.0415 14.5824 14.5824C14.5824 14.1233 14.4271 13.7385 14.1166 13.428C13.806 13.1174 13.4212 12.9621 12.9621 12.9621C12.5031 12.9621 12.1182 13.1174 11.8077 13.428C11.4971 13.7385 11.3419 14.1233 11.3419 14.5824C11.3419 15.0415 11.4971 15.4263 11.8077 15.7368C12.1182 16.0474 12.5031 16.2027 12.9621 16.2027ZM6.48107 29.1648V25.9243L16.2027 24.304V6.27854C16.2027 5.87347 16.0812 5.50891 15.8381 5.18485C15.5951 4.8608 15.2845 4.67177 14.9065 4.61776L6.48107 3.24053V0L15.3925 1.45824C16.5807 1.67428 17.5529 2.22787 18.309 3.11901C19.0651 4.01016 19.4432 5.04983 19.4432 6.23803V24.223C19.4432 25.0061 19.1867 25.7015 18.6736 26.3091C18.1605 26.9167 17.5124 27.288 16.7293 27.423L6.48107 29.1648ZM6.48107 25.9243H22.6837V3.24053H6.48107V25.9243ZM1.62027 29.1648C1.16119 29.1648 0.776378 29.0095 0.465827 28.699C0.155276 28.3884 0 28.0036 0 27.5445C0 27.0855 0.155276 26.7007 0.465827 26.3901C0.776378 26.0795 1.16119 25.9243 1.62027 25.9243H3.24053V3.24053C3.24053 2.34939 3.55784 1.58651 4.19244 0.951907C4.82705 0.317302 5.58992 0 6.48107 0H22.6837C23.5749 0 24.3378 0.317302 24.9724 0.951907C25.607 1.58651 25.9243 2.34939 25.9243 3.24053V25.9243H27.5445C28.0036 25.9243 28.3884 26.0795 28.699 26.3901C29.0095 26.7007 29.1648 27.0855 29.1648 27.5445C29.1648 28.0036 29.0095 28.3884 28.699 28.699C28.3884 29.0095 28.0036 29.1648 27.5445 29.1648H1.62027Z" fill="#D75F04"/>
</svg>
