<svg width="34" height="31" viewBox="0 0 34 31" fill="none" xmlns="http://www.w3.org/2000/svg">
<path d="M8.6224 20H11.3307C11.553 20 11.7682 19.9583 11.9766 19.875C12.1849 19.7917 12.3724 19.6667 12.5391 19.5L20.3724 11.6667C20.6224 11.4167 20.8099 11.1319 20.9349 10.8125C21.0599 10.4931 21.1224 10.1806 21.1224 9.875C21.1224 9.56945 21.053 9.27083 20.9141 8.97917C20.7752 8.6875 20.5946 8.41667 20.3724 8.16667L18.8724 6.58333C18.6224 6.33333 18.3446 6.14583 18.0391 6.02083C17.7335 5.89583 17.4141 5.83333 17.0807 5.83333C16.7752 5.83333 16.4627 5.89583 16.1432 6.02083C15.8238 6.14583 15.5391 6.33333 15.2891 6.58333L7.45573 14.4167C7.28906 14.5833 7.16406 14.7708 7.08073 14.9792C6.9974 15.1875 6.95573 15.4028 6.95573 15.625V18.3333C6.95573 18.8056 7.11545 19.2014 7.4349 19.5208C7.75434 19.8403 8.15018 20 8.6224 20ZM9.45573 17.5V15.9167L13.6641 11.7083L14.4974 12.4583L15.2474 13.2917L11.0391 17.5H9.45573ZM14.4974 12.4583L15.2474 13.2917L13.6641 11.7083L14.4974 12.4583ZM15.5807 20H25.2891C25.7613 20 26.1571 19.8403 26.4766 19.5208C26.796 19.2014 26.9557 18.8056 26.9557 18.3333C26.9557 17.8611 26.796 17.4653 26.4766 17.1458C26.1571 16.8264 25.7613 16.6667 25.2891 16.6667H18.9141L15.5807 20ZM6.95573 26.6667L3.1224 30.5C2.59462 31.0278 1.99045 31.1458 1.3099 30.8542C0.62934 30.5625 0.289062 30.0417 0.289062 29.2917V3.33333C0.289062 2.41667 0.615451 1.63194 1.26823 0.979167C1.92101 0.326389 2.70573 0 3.6224 0H30.2891C31.2057 0 31.9905 0.326389 32.6432 0.979167C33.296 1.63194 33.6224 2.41667 33.6224 3.33333V23.3333C33.6224 24.25 33.296 25.0347 32.6432 25.6875C31.9905 26.3403 31.2057 26.6667 30.2891 26.6667H6.95573ZM5.53906 23.3333H30.2891V3.33333H3.6224V25.2083L5.53906 23.3333Z" fill="#D75F04"/>
</svg>
