<svg width="25" height="25" viewBox="0 0 25 25" fill="none" xmlns="http://www.w3.org/2000/svg">
<path d="M9.97126 19.2391C9.92252 19.4328 8.70389 23.9961 2.00077 23.9961C1.73558 23.9961 1.48125 23.8908 1.29373 23.7033C1.10622 23.5158 1.00087 23.2614 1.00087 22.9962C1.00087 16.2931 5.56418 15.0745 5.75792 15.0258C6.01532 14.9614 6.28772 15.002 6.51521 15.1386C6.74269 15.2751 6.90662 15.4964 6.97092 15.7538C7.03523 16.0112 6.99466 16.2836 6.85812 16.5111C6.72158 16.7386 6.50027 16.9025 6.24287 16.9668C6.13038 16.9981 3.44064 17.7842 3.04817 21.9488C7.21278 21.5564 8.0002 18.8716 8.0327 18.7466C8.099 18.4896 8.2647 18.2694 8.49335 18.1345C8.72201 17.9996 8.99489 17.961 9.25196 18.0273C9.50903 18.0936 9.72923 18.2593 9.86413 18.488C9.99902 18.7167 10.0376 18.9895 9.97126 19.2466V19.2391ZM21.5952 10.8149L20.999 11.4111V18.7017C21.0005 18.9653 20.9495 19.2266 20.8491 19.4703C20.7487 19.7141 20.6008 19.9354 20.414 20.1215L16.1244 24.4086C15.9394 24.5949 15.7194 24.7427 15.477 24.8436C15.2346 24.9444 14.9746 24.9962 14.7121 24.9961C14.4954 24.996 14.2801 24.961 14.0746 24.8923C13.7218 24.7756 13.4086 24.5625 13.1705 24.2772C12.9324 23.9918 12.7789 23.6455 12.7273 23.2775L12.0561 18.4667L6.53034 12.9409L1.72205 12.2698C1.35351 12.2181 1.00671 12.0646 0.720652 11.8265C0.434595 11.5885 0.220632 11.2754 0.102833 10.9224C-0.0149657 10.5694 -0.0319275 10.1905 0.0538561 9.82836C0.13964 9.46624 0.324765 9.13523 0.588408 8.87259L4.8755 4.58299C5.06158 4.39624 5.28293 4.24836 5.52669 4.14793C5.77045 4.04751 6.03174 3.99656 6.29536 3.99805H13.5859L14.1821 3.40186C17.5168 0.068424 21.5339 -0.0753123 23.1075 0.0184288C23.5951 0.0480572 24.0549 0.255094 24.4003 0.600477C24.7457 0.94586 24.9527 1.4057 24.9823 1.89325C25.0736 3.46185 24.9298 7.48022 21.5964 10.8149H21.5952Z" fill="white"/>
</svg>
