<svg width="70" height="70" viewBox="0 0 70 70" fill="none" xmlns="http://www.w3.org/2000/svg">
<rect y="70" width="70" height="70" transform="rotate(-90 0 70)" fill="white"/>
<path d="M28.9899 25.7102L37.5242 34.2445L28.9685 42.8002C28.3438 43.4248 28.3438 44.4069 28.9685 45.0315C29.5931 45.6562 30.5752 45.6562 31.1998 45.0315L40.8547 35.3767C41.0055 35.2346 41.1254 35.0631 41.207 34.8726L40.7475 34.6757L41.207 34.8726C41.2599 34.7493 41.2959 34.6198 41.3144 34.4875L41.3504 34.4516L41.3504 34.2445C41.3504 33.8527 41.1893 33.4469 40.882 33.1395L31.2213 23.4788C30.5967 22.8542 29.6146 22.8542 28.9899 23.4788C28.3653 24.1035 28.3653 25.0856 28.9899 25.7102Z" fill="#D75F04" stroke="#D75F04"/>
</svg>
