<svg width="26" height="28" viewBox="0 0 26 28" fill="none" xmlns="http://www.w3.org/2000/svg">
<path d="M12.6462 6.13C13.4382 6.13 14.0502 6.688 14.0502 7.426C14.0502 8.2 13.4202 8.722 12.6462 8.722C11.8722 8.722 11.2782 8.128 11.2782 7.426C11.2782 6.724 11.8722 6.13 12.6462 6.13ZM13.7442 10.36V19H11.5842V10.36H13.7442Z" fill="black" fill-opacity="0.5"/>
<path d="M13 0C5.832 0 0 5.832 0 13C0 20.168 5.832 26 13 26C20.168 26 26 20.168 26 13C26 5.832 20.168 0 13 0ZM13 2C19.087 2 24 6.913 24 13C24 19.087 19.087 24 13 24C6.913 24 2 19.087 2 13C2 6.913 6.913 2 13 2Z" fill="black" fill-opacity="0.5"/>
</svg>
