<svg width="120" height="120" viewBox="0 0 120 120" fill="none" xmlns="http://www.w3.org/2000/svg">
<rect width="120" height="120" rx="2" fill="#D75F04"/>
<path d="M60.5 33V36.0556M60.5 84.9444V88M88 60.5H84.9444M36.0556 60.5H33M79.9456 79.9456L77.7853 77.7853M43.2147 43.2147L41.0544 41.0544M79.9456 41.0544L77.7853 43.2147M43.2147 77.7853L41.0544 79.9456M72.7222 60.5C72.7222 63.7415 71.4345 66.8503 69.1424 69.1424C66.8503 71.4345 63.7415 72.7222 60.5 72.7222C57.2585 72.7222 54.1497 71.4345 51.8576 69.1424C49.5655 66.8503 48.2778 63.7415 48.2778 60.5C48.2778 57.2585 49.5655 54.1497 51.8576 51.8576C54.1497 49.5655 57.2585 48.2778 60.5 48.2778C63.7415 48.2778 66.8503 49.5655 69.1424 51.8576C71.4345 54.1497 72.7222 57.2585 72.7222 60.5Z" stroke="white" stroke-width="6" stroke-linecap="round" stroke-linejoin="round"/>
</svg>
