<svg width="17" height="17" viewBox="0 0 17 17" fill="none" xmlns="http://www.w3.org/2000/svg">
<path d="M16.9171 5.01763C16.9067 4.30419 16.7748 3.59641 16.5222 2.92915C16.0802 1.78972 15.1801 0.888735 14.0407 0.447666C13.3819 0.199801 12.6854 0.0669144 11.9805 0.0518351C11.0738 0.0113095 10.7864 0 8.48492 0C6.18345 0 5.88846 6.31965e-08 4.98841 0.0518351C4.2844 0.0669144 3.58793 0.199801 2.92915 0.447666C1.78972 0.888735 0.888735 1.78972 0.447666 2.92915C0.1998 3.58793 0.0659718 4.2844 0.0527775 4.98841C0.0122519 5.896 0 6.18345 0 8.48492C0 10.7864 -7.02184e-09 11.0804 0.0527775 11.9814C0.0669143 12.6864 0.1998 13.3819 0.447666 14.0426C0.889677 15.1811 1.78972 16.0821 2.93009 16.5231C3.58604 16.7795 4.28252 16.9246 4.98936 16.9472C5.89694 16.9877 6.18439 17 8.48587 17C10.7873 17 11.0823 17 11.9824 16.9472C12.6864 16.9331 13.3829 16.8002 14.0426 16.5523C15.182 16.1103 16.0821 15.2093 16.5241 14.0709C16.7719 13.4111 16.9048 12.7156 16.919 12.0097C16.9595 11.1031 16.9717 10.8156 16.9717 8.5132C16.9698 6.21172 16.9698 5.91956 16.9171 5.01763ZM8.47927 12.8372C6.07224 12.8372 4.1223 10.8872 4.1223 8.48021C4.1223 6.07318 6.07224 4.12324 8.47927 4.12324C10.8844 4.12324 12.8362 6.07318 12.8362 8.48021C12.8362 10.8872 10.8844 12.8372 8.47927 12.8372ZM13.0096 4.97805C12.447 4.97805 11.9937 4.52378 11.9937 3.96208C11.9937 3.40038 12.447 2.94611 13.0096 2.94611C13.5704 2.94611 14.0247 3.40038 14.0247 3.96208C14.0247 4.52378 13.5704 4.97805 13.0096 4.97805Z" fill="white"/>
<path d="M8.47863 11.3108C10.0417 11.3108 11.3088 10.0437 11.3088 8.48058C11.3088 6.91751 10.0417 5.65039 8.47863 5.65039C6.91556 5.65039 5.64844 6.91751 5.64844 8.48058C5.64844 10.0437 6.91556 11.3108 8.47863 11.3108Z" fill="white"/>
</svg>
