<svg width="21" height="26" viewBox="0 0 21 26" fill="none" xmlns="http://www.w3.org/2000/svg">
<path d="M2.5665 17.0993C2.86593 16.9496 3.17605 16.8427 3.49686 16.7785C3.81767 16.7144 4.14918 16.6823 4.49138 16.6823H5.133V2.5665H4.49138C3.95669 2.5665 3.50221 2.75364 3.12792 3.12793C2.75364 3.50221 2.5665 3.95669 2.5665 4.49138V17.0993ZM7.69951 16.6823H17.9655V2.5665H7.69951V16.6823ZM4.49138 25.665C3.2509 25.665 2.19222 25.2266 1.31533 24.3497C0.438444 23.4728 0 22.4141 0 21.1737V4.49138C0 3.2509 0.438444 2.19222 1.31533 1.31533C2.19222 0.438444 3.2509 0 4.49138 0H17.9655C18.6713 0 19.2755 0.251303 19.7781 0.75391C20.2807 1.25652 20.532 1.86071 20.532 2.5665V18.6392C20.532 18.8103 20.4625 18.9654 20.3235 19.1044C20.1845 19.2434 19.9332 19.3985 19.5696 19.5696C19.2702 19.7193 19.0349 19.9332 18.8638 20.2112C18.6927 20.4893 18.6071 20.8101 18.6071 21.1737C18.6071 21.5372 18.6927 21.8634 18.8638 22.1521C19.0349 22.4409 19.2702 22.6494 19.5696 22.7777C19.869 22.906 20.1043 23.0825 20.2754 23.3071C20.4465 23.5316 20.532 23.7722 20.532 24.0289V24.3497C20.532 24.7133 20.409 25.0234 20.1631 25.2801C19.9171 25.5367 19.6124 25.665 19.2488 25.665H4.49138ZM4.49138 23.0985H16.4577C16.3294 22.7991 16.2278 22.4943 16.1529 22.1842C16.0781 21.8741 16.0406 21.5372 16.0406 21.1737C16.0406 20.8315 16.0727 20.4999 16.1369 20.1791C16.201 19.8583 16.308 19.5482 16.4577 19.2488H4.49138C3.9353 19.2488 3.47547 19.4359 3.11188 19.8102C2.7483 20.1845 2.5665 20.639 2.5665 21.1737C2.5665 21.7297 2.7483 22.1896 3.11188 22.5531C3.47547 22.9167 3.9353 23.0985 4.49138 23.0985Z" fill="#D75F04"/>
</svg>
