<svg width="23" height="21" viewBox="0 0 23 21" fill="none" xmlns="http://www.w3.org/2000/svg">
<path d="M1.62733 3.64178L6.02199 6.57225L10.403 0.439189C10.4998 0.303459 10.6275 0.192793 10.7757 0.116401C10.9238 0.04001 11.088 0.000102576 11.2547 1.97481e-07C11.4214 -0.000102181 11.5857 0.0396035 11.7339 0.115813C11.8821 0.192022 12.01 0.302531 12.1069 0.438143L16.488 6.57225L20.8837 3.64282C21.05 3.53214 21.2446 3.4714 21.4444 3.46777C21.6442 3.46413 21.8408 3.51777 22.0111 3.62233C22.1814 3.7269 22.3181 3.87802 22.4053 4.05784C22.4924 4.23766 22.5262 4.43866 22.5028 4.63709L20.7842 19.2528C20.7543 19.5074 20.6319 19.7421 20.4403 19.9125C20.2487 20.0828 20.0013 20.1769 19.745 20.177H2.76603C2.50968 20.1769 2.26226 20.0828 2.0707 19.9125C1.87913 19.7421 1.75675 19.5074 1.72676 19.2528L0.00719702 4.635C-0.0162029 4.43649 0.0177326 4.23543 0.104991 4.05559C0.192249 3.87576 0.32918 3.72467 0.499591 3.6202C0.670003 3.51573 0.866766 3.46225 1.06662 3.46607C1.26646 3.46989 1.46104 3.53087 1.62733 3.64178ZM11.256 13.8984C11.8112 13.8984 12.3436 13.6779 12.7361 13.2853C13.1287 12.8928 13.3492 12.3604 13.3492 11.8052C13.3492 11.2501 13.1287 10.7177 12.7361 10.3251C12.3436 9.93257 11.8112 9.71204 11.256 9.71204C10.7009 9.71204 10.1685 9.93257 9.77591 10.3251C9.38336 10.7177 9.16283 11.2501 9.16283 11.8052C9.16283 12.3604 9.38336 12.8928 9.77591 13.2853C10.1685 13.6779 10.7009 13.8984 11.256 13.8984Z" fill="white"/>
</svg>
