<svg width="34" height="32" viewBox="0 0 34 32" fill="none" xmlns="http://www.w3.org/2000/svg">
<path d="M26.7999 6.70312L26.752 6.83684H26.894H30.6C32.4327 6.83684 33.9 8.2919 33.9 10.1053V28.6316C33.9 30.4449 32.4327 31.9 30.6 31.9H3.4C1.56735 31.9 0.1 30.4449 0.1 28.6316L0.117 10.1054V10.1053C0.117 8.29124 1.568 6.83684 3.4 6.83684H7.106H7.24804L7.20014 6.70312C7.01635 6.18996 6.9 5.62877 6.9 5.05263C6.9 2.31295 9.13235 0.1 11.9 0.1C13.6499 0.1 15.1668 0.991404 16.0674 2.31315L16.0673 2.31319L16.0697 2.31644L16.9197 3.4617L16.9994 3.5691L17.0799 3.46227L17.9299 2.33385L17.93 2.33394L17.933 2.32951C18.8335 0.991277 20.3502 0.1 22.1 0.1C24.8677 0.1 27.1 2.31295 27.1 5.05263C27.1 5.62877 26.9837 6.18996 26.7999 6.70312ZM30.6 28.7316H30.7V28.6316V25.2632V25.1632H30.6H3.4H3.3V25.2632V28.6316V28.7316H3.4H30.6ZM30.6 20.3105H30.7V20.2105V10.1053V10.0053H30.6H21.964H21.7653L21.8837 10.1648L25.3591 14.8495L22.7678 16.7036L18.7803 11.3257L18.7803 11.3257L17.0803 9.03514L17 8.92695L16.9197 9.03514L15.2197 11.3257L15.2197 11.3257L11.2322 16.7036L8.64093 14.8495L12.1163 10.1648L12.2347 10.0053H12.036H3.4H3.3V10.1053V20.2105V20.3105H3.4H30.6ZM23.9 5.05263C23.9 4.07021 23.0893 3.26842 22.1 3.26842C21.1107 3.26842 20.3 4.07021 20.3 5.05263C20.3 6.03505 21.1107 6.83684 22.1 6.83684C23.0893 6.83684 23.9 6.03505 23.9 5.05263ZM13.7 5.05263C13.7 4.07021 12.8893 3.26842 11.9 3.26842C10.9107 3.26842 10.1 4.07021 10.1 5.05263C10.1 6.03505 10.9107 6.83684 11.9 6.83684C12.8893 6.83684 13.7 6.03505 13.7 5.05263Z" fill="white" stroke="black" stroke-width="0.2"/>
</svg>
