<svg width="127" height="50" viewBox="0 0 127 50" fill="none" xmlns="http://www.w3.org/2000/svg">
<rect width="127" height="50" rx="2" fill="#D75F04" fill-opacity="0.2"/>
<path d="M41.2387 32H38.7187V17.84H42.0587L48.9187 28.36H48.9587V17.84H51.4787V32H48.2787L41.2787 21.14H41.2387V32ZM59.1566 22.16C62.1966 22.16 63.6566 24.46 63.6566 27.36V28.04H56.3366C56.4966 29.42 57.5366 30.32 58.9166 30.32C59.9966 30.32 60.8166 29.86 61.4966 29.02L63.2166 30.32C62.1766 31.6 60.7966 32.24 59.1566 32.24C56.2166 32.24 53.9366 30.2 53.9366 27.2C53.9366 24.22 56.2166 22.16 59.1566 22.16ZM56.3366 26.24H61.2566C61.2366 24.74 60.2166 23.96 58.7966 23.96C57.3766 23.96 56.5166 24.88 56.3366 26.24ZM68.761 32.24C66.781 32.24 65.261 31.12 65.261 29.36C65.261 27.14 67.041 26.02 71.161 26.02H71.901V25.74C71.901 24.62 71.021 23.96 69.701 23.96C68.701 23.96 67.801 24.36 67.141 24.96L65.881 23.7C66.741 22.82 68.081 22.16 69.961 22.16C73.241 22.16 74.061 24 74.061 26.26V32H71.901V30.68H71.841C71.161 31.76 70.041 32.24 68.761 32.24ZM71.061 27.7C68.941 27.7 67.661 28.16 67.661 29.18C67.661 30 68.461 30.44 69.361 30.44C71.001 30.44 71.761 29.52 71.761 28.3V27.7H71.061ZM76.6432 32V22.4H79.0432V23.92H79.0832C79.6032 22.82 80.6632 22.16 81.9232 22.16C82.2832 22.16 82.4632 22.22 82.7832 22.3V24.62C82.3232 24.5 81.9832 24.44 81.6232 24.44C79.8032 24.44 79.0432 25.72 79.0432 27V32H76.6432ZM92.6346 32H90.2346V22.4H92.5146V23.9H92.5546C93.0746 22.82 94.0946 22.16 95.4946 22.16C96.9746 22.16 97.9946 22.74 98.4946 23.94C99.1946 22.72 100.215 22.16 101.655 22.16C104.015 22.16 105.115 23.7 105.115 26.34V32H102.715V26.5C102.715 25.08 102.135 24.32 100.935 24.32C99.6746 24.32 98.8746 25.24 98.8746 26.8V32H96.4746V26.22C96.4746 25.26 96.0946 24.32 94.8346 24.32C93.3546 24.32 92.6346 25.38 92.6346 26.76V32ZM112.477 22.16C115.517 22.16 116.977 24.46 116.977 27.36V28.04H109.657C109.817 29.42 110.857 30.32 112.237 30.32C113.317 30.32 114.137 29.86 114.817 29.02L116.537 30.32C115.497 31.6 114.117 32.24 112.477 32.24C109.537 32.24 107.257 30.2 107.257 27.2C107.257 24.22 109.537 22.16 112.477 22.16ZM109.657 26.24H114.577C114.557 24.74 113.537 23.96 112.117 23.96C110.697 23.96 109.837 24.88 109.657 26.24Z" fill="#D75F04"/>
<path d="M20 15C20.2695 15 20.5295 15.099 20.7309 15.278C20.9323 15.457 21.0609 15.7038 21.0924 15.9714L21.1001 16.1001V17.5455C22.9658 17.7889 24.6987 18.6422 26.029 19.9727C27.3593 21.3031 28.2124 23.036 28.4555 24.9016L29.9011 24.9005C30.1815 24.9009 30.4512 25.0082 30.6551 25.2007C30.859 25.3932 30.9817 25.6562 30.9981 25.9361C31.0145 26.216 30.9235 26.4917 30.7435 26.7067C30.5635 26.9217 30.3082 27.0599 30.0298 27.093L29.9011 27.1007H28.4555C28.2122 28.9661 27.359 30.6988 26.0287 32.029C24.6984 33.3592 22.9656 34.2124 21.1001 34.4557V35.9012C21.0998 36.1815 20.9924 36.4512 20.8 36.6551C20.6075 36.859 20.3444 36.9817 20.0645 36.9981C19.7846 37.0145 19.5089 36.9235 19.2939 36.7435C19.0789 36.5636 18.9407 36.3083 18.9076 36.0299L18.8999 35.9012V34.4557C17.0346 34.2121 15.302 33.3589 13.972 32.0287C12.6419 30.6985 11.7888 28.9659 11.5456 27.1007H10.0989C9.8185 27.1004 9.54881 26.993 9.34491 26.8005C9.14102 26.608 9.01832 26.345 9.00189 26.0651C8.98546 25.7852 9.07653 25.5096 9.2565 25.2946C9.43647 25.0795 9.69175 24.9414 9.97019 24.9082L10.0989 24.9005H11.5445C11.788 23.0353 12.6413 21.3029 13.9716 19.9729C15.3019 18.6429 17.0345 17.7899 18.8999 17.5466V16.1001C18.8999 15.8083 19.0158 15.5285 19.2221 15.3222C19.4284 15.1159 19.7082 15 20 15ZM20 19.6753C18.3223 19.6753 16.7134 20.3417 15.5271 21.5279C14.3408 22.7141 13.6743 24.323 13.6743 26.0006C13.6743 27.6782 14.3408 29.2871 15.5271 30.4733C16.7134 31.6595 18.3223 32.326 20 32.326C21.6777 32.326 23.2866 31.6595 24.4729 30.4733C25.6592 29.2871 26.3257 27.6782 26.3257 26.0006C26.3257 24.323 25.6592 22.7141 24.4729 21.5279C23.2866 20.3417 21.6777 19.6753 20 19.6753ZM20 21.6004C21.1671 21.6004 22.2864 22.064 23.1116 22.8892C23.9369 23.7144 24.4005 24.8336 24.4005 26.0006C24.4005 27.1676 23.9369 28.2868 23.1116 29.1121C22.2864 29.9373 21.1671 30.4009 20 30.4009C18.8329 30.4009 17.7136 29.9373 16.8884 29.1121C16.0631 28.2868 15.5995 27.1676 15.5995 26.0006C15.5995 24.8336 16.0631 23.7144 16.8884 22.8892C17.7136 22.064 18.8329 21.6004 20 21.6004Z" fill="#D75F04"/>
</svg>
