<svg width="120" height="120" viewBox="0 0 120 120" fill="none" xmlns="http://www.w3.org/2000/svg">
<path d="M0 2C0 0.895429 0.895431 0 2 0H118C119.105 0 120 0.895431 120 2V118C120 119.105 119.105 120 118 120H2C0.895429 120 0 119.105 0 118V2Z" fill="#D75F04"/>
<path d="M42.625 88C39.9667 88 37.6979 87.0604 35.8188 85.1813C33.9396 83.3021 33 81.0333 33 78.375C33 75.7167 33.9396 73.4479 35.8188 71.5687C37.6979 69.6896 39.9667 68.75 42.625 68.75C43.45 68.75 44.2521 68.8527 45.0312 69.058C45.8104 69.2633 46.5438 69.5503 47.2313 69.9188L57.75 59.4V51.8375C55.7333 51.2417 54.0833 50.1077 52.8 48.4358C51.5167 46.7638 50.875 44.8268 50.875 42.625C50.875 39.9667 51.8146 37.6979 53.6937 35.8188C55.5729 33.9396 57.8417 33 60.5 33C63.1583 33 65.4271 33.9396 67.3063 35.8188C69.1854 37.6979 70.125 39.9667 70.125 42.625C70.125 44.825 69.4833 46.7619 68.2 48.4358C66.9167 50.1096 65.2667 51.2435 63.25 51.8375V59.4L73.8375 69.9188C74.525 69.5521 75.2473 69.2661 76.0045 69.0607C76.7617 68.8554 77.5518 68.7518 78.375 68.75C81.0333 68.75 83.3021 69.6896 85.1813 71.5687C87.0604 73.4479 88 75.7167 88 78.375C88 81.0333 87.0604 83.3021 85.1813 85.1813C83.3021 87.0604 81.0333 88 78.375 88C75.7167 88 73.4479 87.0604 71.5687 85.1813C69.6896 83.3021 68.75 81.0333 68.75 78.375C68.75 77.55 68.8527 76.7479 69.058 75.9688C69.2633 75.1896 69.5503 74.4563 69.9188 73.7688L60.5 64.35L51.0812 73.7688C51.4479 74.4563 51.7348 75.1896 51.942 75.9688C52.1492 76.7479 52.2518 77.55 52.25 78.375C52.25 81.0333 51.3104 83.3021 49.4312 85.1813C47.5521 87.0604 45.2833 88 42.625 88ZM78.375 82.5C79.5208 82.5 80.4953 82.0994 81.2982 81.2982C82.1012 80.4971 82.5018 79.5227 82.5 78.375C82.5 77.2292 82.0994 76.2557 81.2982 75.4545C80.4971 74.6533 79.5227 74.2518 78.375 74.25C77.2292 74.25 76.2557 74.6515 75.4545 75.4545C74.6533 76.2575 74.2518 77.231 74.25 78.375C74.25 79.5208 74.6515 80.4953 75.4545 81.2982C76.2575 82.1012 77.231 82.5018 78.375 82.5ZM60.5 46.75C61.6458 46.75 62.6202 46.3494 63.4232 45.5483C64.2262 44.7471 64.6268 43.7727 64.625 42.625C64.625 41.4792 64.2244 40.5057 63.4232 39.7045C62.6221 38.9033 61.6477 38.5018 60.5 38.5C59.3542 38.5 58.3807 38.9015 57.5795 39.7045C56.7783 40.5075 56.3768 41.481 56.375 42.625C56.375 43.7708 56.7765 44.7453 57.5795 45.5483C58.3825 46.3513 59.356 46.7518 60.5 46.75ZM42.625 82.5C43.7708 82.5 44.7453 82.0994 45.5483 81.2982C46.3513 80.4971 46.7518 79.5227 46.75 78.375C46.75 77.2292 46.3494 76.2557 45.5483 75.4545C44.7471 74.6533 43.7727 74.2518 42.625 74.25C41.4792 74.25 40.5057 74.6515 39.7045 75.4545C38.9033 76.2575 38.5018 77.231 38.5 78.375C38.5 79.5208 38.9015 80.4953 39.7045 81.2982C40.5075 82.1012 41.481 82.5018 42.625 82.5Z" fill="white"/>
</svg>
