<svg width="30" height="27" viewBox="0 0 30 27" fill="none" xmlns="http://www.w3.org/2000/svg">
<path d="M8.74944 26.7483C7.94741 26.7483 7.26082 26.4628 6.68968 25.8916C6.11854 25.3205 5.83296 24.6339 5.83296 23.8318V20.9154H2.91648C2.11445 20.9154 1.42786 20.6298 0.856716 20.0587C0.285572 19.4875 0 18.8009 0 17.9989V12.1659C0 10.9264 0.42532 9.88742 1.27596 9.04893C2.1266 8.21045 3.15952 7.7912 4.37472 7.7912H24.7901C26.0296 7.7912 27.0686 8.21045 27.9071 9.04893C28.7456 9.88742 29.1648 10.9264 29.1648 12.1659V17.9989C29.1648 18.8009 28.8792 19.4875 28.3081 20.0587C27.737 20.6298 27.0504 20.9154 26.2483 20.9154H23.3319V23.8318C23.3319 24.6339 23.0463 25.3205 22.4751 25.8916C21.904 26.4628 21.2174 26.7483 20.4154 26.7483H8.74944ZM2.91648 17.9989H5.83296C5.83296 17.1969 6.11854 16.5103 6.68968 15.9391C7.26082 15.368 7.94741 15.0824 8.74944 15.0824H20.4154C21.2174 15.0824 21.904 15.368 22.4751 15.9391C23.0463 16.5103 23.3319 17.1969 23.3319 17.9989H26.2483V12.1659C26.2483 11.7528 26.1086 11.4064 25.8291 11.1269C25.5496 10.8474 25.2033 10.7077 24.7901 10.7077H4.37472C3.96155 10.7077 3.61522 10.8474 3.33573 11.1269C3.05623 11.4064 2.91648 11.7528 2.91648 12.1659V17.9989ZM20.4154 7.7912V3.41648H8.74944V7.7912H5.83296V3.41648C5.83296 2.61445 6.11854 1.92786 6.68968 1.35672C7.26082 0.785572 7.94741 0.5 8.74944 0.5H20.4154C21.2174 0.5 21.904 0.785572 22.4751 1.35672C23.0463 1.92786 23.3319 2.61445 23.3319 3.41648V7.7912H20.4154ZM23.3319 14.3533C23.745 14.3533 24.0914 14.2135 24.3708 13.934C24.6503 13.6545 24.7901 13.3082 24.7901 12.895C24.7901 12.4819 24.6503 12.1355 24.3708 11.856C24.0914 11.5766 23.745 11.4368 23.3319 11.4368C22.9187 11.4368 22.5724 11.5766 22.2929 11.856C22.0134 12.1355 21.8736 12.4819 21.8736 12.895C21.8736 13.3082 22.0134 13.6545 22.2929 13.934C22.5724 14.2135 22.9187 14.3533 23.3319 14.3533ZM20.4154 23.8318V17.9989H8.74944V23.8318H20.4154Z" fill="#D75F04"/>
</svg>
