<svg width="34" height="34" viewBox="0 0 34 34" fill="none" xmlns="http://www.w3.org/2000/svg">
<path d="M28.25 33.3333C24.7778 33.3333 21.3472 32.5764 17.9583 31.0625C14.5694 29.5486 11.4861 27.4028 8.70833 24.625C5.93056 21.8472 3.78472 18.7639 2.27083 15.375C0.756945 11.9861 0 8.55556 0 5.08333C0 4.58333 0.166667 4.16667 0.5 3.83333C0.833333 3.5 1.25 3.33333 1.75 3.33333H8.5C8.88889 3.33333 9.23611 3.46528 9.54167 3.72917C9.84722 3.99306 10.0278 4.30556 10.0833 4.66667L11.1667 10.5C11.2222 10.9444 11.2083 11.3194 11.125 11.625C11.0417 11.9306 10.8889 12.1944 10.6667 12.4167L6.625 16.5C7.18056 17.5278 7.84028 18.5208 8.60417 19.4792C9.36806 20.4375 10.2083 21.3611 11.125 22.25C11.9861 23.1111 12.8889 23.9097 13.8333 24.6458C14.7778 25.382 15.7778 26.0556 16.8333 26.6667L20.75 22.75C21 22.5 21.3264 22.3125 21.7292 22.1875C22.1319 22.0625 22.5278 22.0278 22.9167 22.0833L28.6667 23.25C29.0556 23.3611 29.375 23.5625 29.625 23.8542C29.875 24.1458 30 24.4722 30 24.8333V31.5833C30 32.0833 29.8333 32.5 29.5 32.8333C29.1667 33.1667 28.75 33.3333 28.25 33.3333ZM5.04167 13.3333L7.79167 10.5833L7.08333 6.66667H3.375C3.51389 7.80556 3.70833 8.93056 3.95833 10.0417C4.20833 11.1528 4.56945 12.25 5.04167 13.3333ZM19.9583 28.25C21.0417 28.7222 22.1458 29.0972 23.2708 29.375C24.3958 29.6528 25.5278 29.8333 26.6667 29.9167V26.25L22.75 25.4583L19.9583 28.25ZM25 16.6667C22.6944 16.6667 20.7292 15.8542 19.1042 14.2292C17.4792 12.6042 16.6667 10.6389 16.6667 8.33333C16.6667 6.02778 17.4792 4.0625 19.1042 2.4375C20.7292 0.8125 22.6944 0 25 0C27.3056 0 29.2708 0.8125 30.8958 2.4375C32.5208 4.0625 33.3333 6.02778 33.3333 8.33333C33.3333 10.6389 32.5208 12.6042 30.8958 14.2292C29.2708 15.8542 27.3056 16.6667 25 16.6667ZM25 13.3333C25.2222 13.3333 25.4167 13.25 25.5833 13.0833C25.75 12.9167 25.8333 12.7222 25.8333 12.5V7.5C25.8333 7.27778 25.75 7.08333 25.5833 6.91667C25.4167 6.75 25.2222 6.66667 25 6.66667C24.7778 6.66667 24.5833 6.75 24.4167 6.91667C24.25 7.08333 24.1667 7.27778 24.1667 7.5V12.5C24.1667 12.7222 24.25 12.9167 24.4167 13.0833C24.5833 13.25 24.7778 13.3333 25 13.3333ZM25 5C25.2222 5 25.4167 4.91667 25.5833 4.75C25.75 4.58333 25.8333 4.38889 25.8333 4.16667C25.8333 3.94445 25.75 3.75 25.5833 3.58333C25.4167 3.41667 25.2222 3.33333 25 3.33333C24.7778 3.33333 24.5833 3.41667 24.4167 3.58333C24.25 3.75 24.1667 3.94445 24.1667 4.16667C24.1667 4.38889 24.25 4.58333 24.4167 4.75C24.5833 4.91667 24.7778 5 25 5Z" fill="#D75F04"/>
</svg>
