<svg width="19" height="18" viewBox="0 0 19 18" fill="none" xmlns="http://www.w3.org/2000/svg">
<path d="M8.41757 0.567339C8.51816 0.394715 8.66226 0.251485 8.83549 0.151936C9.00872 0.0523873 9.20503 0 9.40482 0C9.60462 0 9.80093 0.0523873 9.97415 0.151936C10.1474 0.251485 10.2915 0.394715 10.3921 0.567339L12.9471 4.95332L17.9089 6.02833C18.1041 6.07075 18.2848 6.16358 18.4329 6.29757C18.581 6.43157 18.6914 6.60205 18.7531 6.79202C18.8148 6.98198 18.8256 7.1848 18.7845 7.38025C18.7433 7.57571 18.6517 7.75696 18.5187 7.90595L15.1364 11.6913L15.6483 16.7419C15.6685 16.9408 15.6362 17.1415 15.5545 17.3239C15.4729 17.5064 15.3449 17.6643 15.1831 17.7818C15.0214 17.8993 14.8317 17.9723 14.6329 17.9935C14.4342 18.0148 14.2333 17.9835 14.0504 17.9028L9.40482 15.8552L4.75923 17.9028C4.57633 17.9835 4.37547 18.0148 4.17671 17.9935C3.97794 17.9723 3.78823 17.8993 3.62651 17.7818C3.46479 17.6643 3.33673 17.5064 3.2551 17.3239C3.17347 17.1415 3.14114 16.9408 3.16134 16.7419L3.67325 11.6913L0.29098 7.90686C0.157726 7.75789 0.0658817 7.57656 0.0246165 7.38098C-0.0166487 7.18541 -0.00589106 6.98244 0.0558155 6.79232C0.117522 6.6022 0.228019 6.4316 0.376274 6.29754C0.524529 6.16348 0.705357 6.07066 0.900703 6.02833L5.86258 4.95332L8.41757 0.567339Z" fill="#FFA800"/>
</svg>
