<svg width="34" height="35" viewBox="0 0 34 35" fill="none" xmlns="http://www.w3.org/2000/svg">
<path d="M22.241 13.9625L14.3973 21.783L11.5451 18.9521C11.0281 18.439 10.1725 18.439 9.6555 18.9521C9.13853 19.4652 9.13853 20.3145 9.6555 20.8276L13.4347 24.5786C13.9517 25.0917 14.8073 25.0917 15.3243 24.5786L24.1306 15.838C24.6476 15.3249 24.6476 14.4757 24.1306 13.9625C23.6136 13.4494 22.7579 13.4494 22.241 13.9625ZM33.3647 4.93892L27.8741 0.409408C27.1254 -0.209861 26.0024 -0.121394 25.3606 0.639422C24.7367 1.38254 24.8436 2.49723 25.5924 3.13419L31.0651 7.6637C31.8138 8.28297 32.9369 8.1945 33.5786 7.43369C34.2204 6.69056 34.1134 5.57588 33.3647 4.93892ZM2.91709 7.6637L8.38982 3.13419C9.15635 2.49723 9.26331 1.38254 8.62156 0.639422C7.99763 -0.121394 6.87457 -0.209861 6.12586 0.409408L0.635304 4.93892C-0.113407 5.57588 -0.220366 6.69056 0.421387 7.43369C1.04531 8.1945 2.16838 8.28297 2.91709 7.6637ZM17 3.15188C8.14025 3.15188 0.956181 10.2823 0.956181 19.0759C0.956181 27.8696 8.14025 35 17 35C25.8598 35 33.0438 27.8696 33.0438 19.0759C33.0438 10.2823 25.8598 3.15188 17 3.15188ZM17 31.4613C10.119 31.4613 4.52147 25.9056 4.52147 19.0759C4.52147 12.2463 10.119 6.69056 17 6.69056C23.881 6.69056 29.4785 12.2463 29.4785 19.0759C29.4785 25.9056 23.881 31.4613 17 31.4613Z" fill="white"/>
</svg>
