<svg width="22" height="22" viewBox="0 0 22 22" fill="none" xmlns="http://www.w3.org/2000/svg">
<path fill-rule="evenodd" clip-rule="evenodd" d="M10.1506 1.03622C11.8766 0.888926 13.6112 1.19249 15.1846 1.91717C16.758 2.64186 18.1162 3.76281 19.1261 5.17023V3.18761C19.1261 2.93895 19.2249 2.70048 19.4007 2.52465C19.5766 2.34883 19.815 2.25005 20.0637 2.25005C20.3123 2.25005 20.5508 2.34883 20.7266 2.52465C20.9025 2.70048 21.0012 2.93895 21.0012 3.18761V8.50044H15.6884C15.4398 8.50044 15.2013 8.40166 15.0255 8.22583C14.8496 8.05 14.7509 7.81153 14.7509 7.56288C14.7509 7.31422 14.8496 7.07575 15.0255 6.89992C15.2013 6.7241 15.4398 6.62532 15.6884 6.62532H17.8473C16.9924 5.28762 15.7643 4.22965 14.3149 3.58212C12.8654 2.93458 11.2579 2.72584 9.69114 2.98167C8.12434 3.23751 6.66681 3.94672 5.49858 5.02169C4.33036 6.09666 3.50263 7.49031 3.11763 9.03047C3.08923 9.15145 3.03707 9.26558 2.96416 9.36623C2.89126 9.46687 2.79908 9.55202 2.69297 9.61671C2.58687 9.68141 2.46896 9.72437 2.34611 9.74309C2.22325 9.7618 2.0979 9.75591 1.97734 9.72575C1.85678 9.69559 1.74343 9.64177 1.64386 9.5674C1.54429 9.49304 1.4605 9.39962 1.39736 9.29259C1.33421 9.18555 1.29298 9.06703 1.27606 8.94391C1.25913 8.8208 1.26685 8.69554 1.29877 8.57544C1.80448 6.55335 2.92937 4.7398 4.51621 3.3883C6.10304 2.0368 8.07251 1.2149 10.1493 1.03747L10.1506 1.03622ZM5.9003 19.6024C7.24037 20.3966 8.74746 20.8669 10.3014 20.9756C11.8554 21.0843 13.4133 20.8285 14.8509 20.2286C16.2885 19.6287 17.5661 18.7012 18.5818 17.5201C19.5975 16.339 20.3233 14.937 20.7012 13.4257C20.7575 13.186 20.7172 12.9337 20.589 12.7234C20.4607 12.5131 20.2549 12.3617 20.016 12.302C19.7771 12.2422 19.5242 12.2788 19.3121 12.404C19.1 12.5291 18.9456 12.7327 18.8824 12.9707C18.4972 14.5105 17.6694 15.9038 16.5013 16.9785C15.3332 18.0532 13.8758 18.7623 12.3093 19.0181C10.7428 19.2739 9.13562 19.0653 7.6863 18.418C6.23699 17.7708 5.00899 16.7132 4.15395 15.3759H6.31283C6.56149 15.3759 6.79996 15.2771 6.97578 15.1013C7.15161 14.9254 7.25039 14.687 7.25039 14.4383C7.25039 14.1896 7.15161 13.9512 6.97578 13.7753C6.79996 13.5995 6.56149 13.5007 6.31283 13.5007H1V18.8136C1 19.0622 1.09878 19.3007 1.2746 19.4765C1.45043 19.6524 1.6889 19.7511 1.93756 19.7511C2.18621 19.7511 2.42469 19.6524 2.60051 19.4765C2.77634 19.3007 2.87512 19.0622 2.87512 18.8136V16.831C3.68114 17.9539 4.71121 18.8976 5.9003 19.6024Z" fill="white" stroke="white" stroke-width="0.2"/>
</svg>
