<svg width="727" height="466" viewBox="0 0 727 466" fill="none" xmlns="http://www.w3.org/2000/svg">
<path d="M724.234 0.412109H2.30957C1.205 0.412109 0.30957 1.30753 0.30957 2.4121V463.326C0.30957 464.431 1.205 465.326 2.30957 465.326H724.234C725.338 465.326 726.234 464.431 726.234 463.326V2.41211C726.234 1.30754 725.338 0.412109 724.234 0.412109Z" fill="#F7DFCD"/>
<path d="M703.379 58.7188H22.9697C21.8652 58.7188 20.9697 59.6142 20.9697 60.7187V435.817C20.9697 436.921 21.8652 437.817 22.9697 437.817H703.379C704.483 437.817 705.379 436.921 705.379 435.817V60.7188C705.379 59.6142 704.483 58.7188 703.379 58.7188Z" fill="white"/>
<path d="M723.924 0H2C0.89543 0 0 0.895431 0 2V28.8399C0 29.9445 0.895428 30.8399 2 30.8399H723.924C725.029 30.8399 725.924 29.9445 725.924 28.8399V2C725.924 0.89543 725.029 0 723.924 0Z" fill="#D75F04"/>
<path d="M22.9171 21.4836C26.0739 21.4836 28.6331 18.9245 28.6331 15.7677C28.6331 12.6109 26.0739 10.0518 22.9171 10.0518C19.7603 10.0518 17.2012 12.6109 17.2012 15.7677C17.2012 18.9245 19.7603 21.4836 22.9171 21.4836Z" fill="white"/>
<path d="M44.6134 21.4836C47.7702 21.4836 50.3293 18.9245 50.3293 15.7677C50.3293 12.6109 47.7702 10.0518 44.6134 10.0518C41.4566 10.0518 38.8975 12.6109 38.8975 15.7677C38.8975 18.9245 41.4566 21.4836 44.6134 21.4836Z" fill="white"/>
<path d="M66.3097 21.4836C69.4665 21.4836 72.0256 18.9245 72.0256 15.7677C72.0256 12.6109 69.4665 10.0518 66.3097 10.0518C63.1529 10.0518 60.5938 12.6109 60.5938 15.7677C60.5938 18.9245 63.1529 21.4836 66.3097 21.4836Z" fill="white"/>
<path d="M362.97 157.348C351.282 157.347 339.709 159.649 328.911 164.122C318.113 168.595 308.302 175.15 300.037 183.415C291.773 191.679 285.217 201.49 280.745 212.288C276.272 223.086 273.97 234.66 273.97 246.347C273.97 258.035 276.272 269.608 280.744 280.406C285.217 291.204 291.773 301.015 300.037 309.28C308.301 317.544 318.113 324.1 328.911 328.573C339.708 333.045 351.282 335.348 362.969 335.348C386.573 335.348 409.211 325.971 425.902 309.28C442.593 292.589 451.97 269.952 451.97 246.348C451.97 222.743 442.593 200.106 425.902 183.415C409.211 166.724 386.574 157.348 362.97 157.348Z" fill="#D75F04"/>
<path d="M356.885 270.348C355.432 270.35 354.018 269.881 352.855 269.012L352.783 268.958L337.606 257.375C336.188 256.289 335.261 254.685 335.027 252.917C334.794 251.149 335.274 249.36 336.362 247.945C337.449 246.53 339.056 245.603 340.828 245.369C342.6 245.134 344.393 245.611 345.813 246.695L355.644 254.216L378.875 223.981C379.413 223.28 380.085 222.692 380.852 222.25C381.618 221.808 382.465 221.521 383.342 221.405C384.22 221.29 385.112 221.348 385.967 221.576C386.823 221.804 387.624 222.198 388.327 222.736L388.329 222.737L388.185 222.937L388.333 222.737C389.75 223.824 390.678 225.428 390.912 227.196C391.146 228.964 390.667 230.753 389.58 232.169L362.256 267.715C361.624 268.535 360.811 269.197 359.88 269.652C358.95 270.107 357.927 270.343 356.891 270.34L356.885 270.348Z" fill="white"/>
</svg>
