<svg width="31" height="25" viewBox="0 0 31 25" fill="none" xmlns="http://www.w3.org/2000/svg">
<path d="M24.6021 11.1834L2.44336 3.27755C1.99401 3.11112 1.67104 2.81985 1.47444 2.40375C1.27785 1.98766 1.26381 1.55769 1.43232 1.11386C1.60082 0.670021 1.89571 0.351014 2.31698 0.156836C2.73825 -0.0373419 3.17356 -0.0512118 3.62292 0.115227L28.3093 9.01968C28.871 9.24159 29.3484 9.62995 29.7416 10.1847C30.1348 10.7395 30.3314 11.3498 30.3314 12.0156V21.1697C30.3314 22.0851 30.0014 22.8687 29.3414 23.5206C28.6814 24.1725 27.888 24.4984 26.9612 24.4984H3.37016C2.44336 24.4984 1.64997 24.1725 0.989983 23.5206C0.329994 22.8687 0 22.0851 0 21.1697V14.5121C0 13.5967 0.329994 12.8131 0.989983 12.1612C1.64997 11.5093 2.44336 11.1834 3.37016 11.1834H24.6021ZM26.9612 21.1697V14.5121H3.37016V21.1697H26.9612ZM13.4806 19.5053H23.5911C24.0685 19.5053 24.4687 19.3458 24.7917 19.0268C25.1147 18.7078 25.2762 18.3125 25.2762 17.8409C25.2762 17.3693 25.1147 16.974 24.7917 16.655C24.4687 16.336 24.0685 16.1765 23.5911 16.1765H13.4806C13.0032 16.1765 12.603 16.336 12.28 16.655C11.957 16.974 11.7955 17.3693 11.7955 17.8409C11.7955 18.3125 11.957 18.7078 12.28 19.0268C12.603 19.3458 13.0032 19.5053 13.4806 19.5053ZM6.74031 19.5053C7.21775 19.5053 7.61796 19.3458 7.94093 19.0268C8.2639 18.7078 8.42539 18.3125 8.42539 17.8409C8.42539 17.3693 8.2639 16.974 7.94093 16.655C7.61796 16.336 7.21775 16.1765 6.74031 16.1765C6.26287 16.1765 5.86267 16.336 5.53969 16.655C5.21672 16.974 5.05523 17.3693 5.05523 17.8409C5.05523 18.3125 5.21672 18.7078 5.53969 19.0268C5.86267 19.3458 6.26287 19.5053 6.74031 19.5053Z" fill="#D75F04"/>
</svg>
