<svg width="21" height="27" viewBox="0 0 21 27" fill="none" xmlns="http://www.w3.org/2000/svg">
<path d="M2.62483 26.8316C1.903 26.8316 1.28507 26.5814 0.771045 26.081C0.257015 25.5805 0 24.979 0 24.2762V11.4993C0 10.7965 0.257015 10.195 0.771045 9.69452C1.28507 9.19409 1.903 8.94388 2.62483 8.94388H3.93725V6.38848C3.93725 4.621 4.57705 3.11439 5.85666 1.86863C7.13626 0.622877 8.68382 0 10.4993 0C12.3148 0 13.8624 0.622877 15.142 1.86863C16.4216 3.11439 17.0614 4.621 17.0614 6.38848V8.94388H18.3738C19.0957 8.94388 19.7136 9.19409 20.2276 9.69452C20.7416 10.195 20.9987 10.7965 20.9987 11.4993V24.2762C20.9987 24.979 20.7416 25.5805 20.2276 26.081C19.7136 26.5814 19.0957 26.8316 18.3738 26.8316H2.62483ZM2.62483 24.2762H18.3738V11.4993H2.62483V24.2762ZM10.4993 20.4431C11.2212 20.4431 11.8391 20.1929 12.3531 19.6925C12.8672 19.1921 13.1242 18.5905 13.1242 17.8878C13.1242 17.185 12.8672 16.5834 12.3531 16.083C11.8391 15.5826 11.2212 15.3324 10.4993 15.3324C9.7775 15.3324 9.15957 15.5826 8.64554 16.083C8.13151 16.5834 7.8745 17.185 7.8745 17.8878C7.8745 18.5905 8.13151 19.1921 8.64554 19.6925C9.15957 20.1929 9.7775 20.4431 10.4993 20.4431ZM6.56208 8.94388H14.4366V6.38848C14.4366 5.32374 14.0538 4.4187 13.2882 3.67338C12.5226 2.92805 11.593 2.55539 10.4993 2.55539C9.40565 2.55539 8.47602 2.92805 7.71045 3.67338C6.94487 4.4187 6.56208 5.32374 6.56208 6.38848V8.94388Z" fill="#D75F04"/>
</svg>
