<svg width="26" height="24" viewBox="0 0 26 24" fill="none" xmlns="http://www.w3.org/2000/svg">
<path d="M11.2234 0.756453C11.3576 0.526287 11.5497 0.335313 11.7807 0.202581C12.0116 0.0698498 12.2734 0 12.5398 0C12.8062 0 13.0679 0.0698498 13.2989 0.202581C13.5298 0.335313 13.722 0.526287 13.8561 0.756453L17.2628 6.60443L23.8786 8.03778C24.1388 8.09433 24.3797 8.2181 24.5772 8.39677C24.7747 8.57543 24.9219 8.80273 25.0041 9.05602C25.0864 9.30931 25.1008 9.57974 25.046 9.84034C24.9911 10.1009 24.8689 10.3426 24.6916 10.5413L20.1819 15.5885L20.8644 22.3225C20.8913 22.5877 20.8482 22.8553 20.7394 23.0986C20.6306 23.3419 20.4598 23.5524 20.2442 23.709C20.0286 23.8657 19.7756 23.963 19.5106 23.9914C19.2456 24.0197 18.9778 23.978 18.7339 23.8705L12.5398 21.1403L6.34564 23.8705C6.10178 23.978 5.83396 24.0197 5.56894 23.9914C5.30393 23.963 5.05097 23.8657 4.83535 23.709C4.61972 23.5524 4.44897 23.3419 4.34013 23.0986C4.2313 22.8553 4.18819 22.5877 4.21512 22.3225L4.89767 15.5885L0.387974 10.5425C0.210301 10.3438 0.0878423 10.1021 0.032822 9.84131C-0.0221983 9.58055 -0.00785474 9.30991 0.0744207 9.05643C0.156696 8.80294 0.304025 8.57547 0.501699 8.39672C0.699372 8.21798 0.940475 8.09421 1.20094 8.03778L7.81678 6.60443L11.2234 0.756453Z" fill="#FFA800"/>
</svg>
