<svg width="22" height="22" viewBox="0 0 22 22" fill="none" xmlns="http://www.w3.org/2000/svg">
<path d="M17.6282 22.004C16.6695 22.004 15.3227 21.6573 13.3059 20.5305C10.8535 19.1552 8.95661 17.8856 6.51745 15.4528C4.16572 13.1025 3.02129 11.5809 1.41958 8.66627C-0.389902 5.37542 -0.0814462 3.65042 0.263356 2.91318C0.673976 2.03201 1.28008 1.50499 2.0635 0.981888C2.50848 0.690346 2.97937 0.440429 3.47022 0.235307C3.51933 0.214186 3.56501 0.194048 3.60578 0.175875C3.84891 0.0663437 4.21729 -0.0991812 4.6839 0.0776406C4.99531 0.19454 5.27331 0.43374 5.70849 0.863516C6.60095 1.7437 7.82053 3.70396 8.27044 4.66666C8.57251 5.3155 8.77242 5.7438 8.77291 6.22416C8.77291 6.78656 8.48999 7.22026 8.14666 7.68835C8.08232 7.77627 8.01847 7.86026 7.95658 7.94179C7.5828 8.43296 7.50077 8.57491 7.5548 8.82836C7.66433 9.3377 8.48115 10.854 9.82353 12.1934C11.1659 13.5328 12.6384 14.298 13.1497 14.4071C13.414 14.4636 13.5589 14.3781 14.0658 13.9911C14.1385 13.9356 14.2131 13.8781 14.2912 13.8206C14.8148 13.4311 15.2284 13.1556 15.7775 13.1556H15.7805C16.2584 13.1556 16.6675 13.3629 17.3453 13.7047C18.2294 14.1507 20.2486 15.3546 21.1342 16.248C21.565 16.6822 21.8052 16.9592 21.9226 17.2701C22.0994 17.7382 21.9329 18.1051 21.8243 18.3507C21.8062 18.3915 21.786 18.4362 21.7649 18.4858C21.5581 18.9757 21.3068 19.4457 21.0139 19.8895C20.4918 20.6705 19.9628 21.2751 19.0797 21.6863C18.6262 21.9008 18.1299 22.0094 17.6282 22.004Z" fill="white"/>
</svg>
