<svg width="30" height="29" viewBox="0 0 30 29" fill="none" xmlns="http://www.w3.org/2000/svg">
<path d="M10.332 20C7.55426 20 5.19314 19.0278 3.2487 17.0833C1.30425 15.1389 0.332031 12.7778 0.332031 10C0.332031 9.44445 0.373698 8.88889 0.457031 8.33334C0.540365 7.77778 0.693143 7.25 0.915365 6.75C1.05425 6.47222 1.22786 6.26389 1.4362 6.125C1.64453 5.98611 1.8737 5.88889 2.1237 5.83334C2.3737 5.77778 2.63064 5.78472 2.89453 5.85417C3.15842 5.92361 3.40148 6.06945 3.6237 6.29167L7.9987 10.6667L10.9987 7.66667L6.6237 3.29167C6.40148 3.06945 6.25564 2.82639 6.1862 2.5625C6.11676 2.29861 6.10981 2.04167 6.16537 1.79167C6.22092 1.54167 6.31814 1.3125 6.45703 1.10417C6.59592 0.895834 6.80426 0.722223 7.08203 0.583334C7.58203 0.361111 8.10981 0.208333 8.66537 0.125C9.22092 0.0416667 9.77648 0 10.332 0C13.1098 0 15.4709 0.972223 17.4154 2.91667C19.3598 4.86111 20.332 7.22223 20.332 10C20.332 10.6389 20.2765 11.2431 20.1654 11.8125C20.0543 12.3819 19.8876 12.9444 19.6654 13.5L28.082 21.8333C28.8876 22.6389 29.2904 23.625 29.2904 24.7917C29.2904 25.9583 28.8876 26.9445 28.082 27.75C27.2765 28.5556 26.2904 28.9583 25.1237 28.9583C23.957 28.9583 22.9709 28.5417 22.1654 27.7083L13.832 19.3333C13.2765 19.5556 12.714 19.7222 12.1445 19.8333C11.5751 19.9445 10.9709 20 10.332 20ZM10.332 16.6667C11.0543 16.6667 11.7765 16.5556 12.4987 16.3333C13.2209 16.1111 13.8737 15.7639 14.457 15.2917L24.582 25.4167C24.7209 25.5556 24.9084 25.6181 25.1445 25.6042C25.3807 25.5903 25.5682 25.5139 25.707 25.375C25.8459 25.2361 25.9154 25.0486 25.9154 24.8125C25.9154 24.5764 25.8459 24.3889 25.707 24.25L15.582 14.1667C16.082 13.6111 16.4431 12.9653 16.6654 12.2292C16.8876 11.4931 16.9987 10.75 16.9987 10C16.9987 8.33334 16.464 6.88195 15.3945 5.64584C14.3251 4.40972 12.9987 3.66667 11.4154 3.41667L14.4987 6.5C14.832 6.83334 14.9987 7.22223 14.9987 7.66667C14.9987 8.11111 14.832 8.5 14.4987 8.83334L9.16537 14.1667C8.83203 14.5 8.44315 14.6667 7.9987 14.6667C7.55426 14.6667 7.16537 14.5 6.83203 14.1667L3.7487 11.0833C3.9987 12.6667 4.74176 13.9931 5.97787 15.0625C7.21398 16.132 8.66537 16.6667 10.332 16.6667Z" fill="#D75F04"/>
</svg>
